<svg width="162" height="38" viewBox="0 0 162 38" fill="none" xmlns="http://www.w3.org/2000/svg">
<rect width="162" height="38" rx="19" fill="#3F98D7"/>
<path d="M43.4636 23.015C43.2436 23.015 43.0586 22.945 42.9086 22.805C42.7686 22.655 42.6986 22.47 42.6986 22.25V18.56C42.6986 17.99 42.5936 17.525 42.3836 17.165C42.1736 16.805 41.8886 16.54 41.5286 16.37C41.1786 16.19 40.7736 16.1 40.3136 16.1C39.8936 16.1 39.5136 16.185 39.1736 16.355C38.8336 16.525 38.5636 16.755 38.3636 17.045C38.1636 17.325 38.0636 17.65 38.0636 18.02H37.1186C37.1186 17.39 37.2686 16.83 37.5686 16.34C37.8786 15.84 38.2986 15.445 38.8286 15.155C39.3586 14.865 39.9536 14.72 40.6136 14.72C41.3036 14.72 41.9186 14.87 42.4586 15.17C43.0086 15.46 43.4386 15.89 43.7486 16.46C44.0686 17.03 44.2286 17.73 44.2286 18.56V22.25C44.2286 22.47 44.1536 22.655 44.0036 22.805C43.8636 22.945 43.6836 23.015 43.4636 23.015ZM37.2986 23.015C37.0786 23.015 36.8936 22.945 36.7436 22.805C36.6036 22.655 36.5336 22.47 36.5336 22.25V15.56C36.5336 15.33 36.6036 15.145 36.7436 15.005C36.8936 14.865 37.0786 14.795 37.2986 14.795C37.5286 14.795 37.7136 14.865 37.8536 15.005C37.9936 15.145 38.0636 15.33 38.0636 15.56V22.25C38.0636 22.47 37.9936 22.655 37.8536 22.805C37.7136 22.945 37.5286 23.015 37.2986 23.015ZM50.4782 23.06C49.6682 23.06 48.9532 22.885 48.3332 22.535C47.7132 22.175 47.2232 21.685 46.8632 21.065C46.5132 20.435 46.3382 19.715 46.3382 18.905C46.3382 18.085 46.5132 17.365 46.8632 16.745C47.2232 16.115 47.7132 15.625 48.3332 15.275C48.9532 14.915 49.6682 14.735 50.4782 14.735C51.2782 14.735 51.9882 14.915 52.6082 15.275C53.2282 15.625 53.7132 16.115 54.0632 16.745C54.4232 17.365 54.6032 18.085 54.6032 18.905C54.6032 19.715 54.4282 20.435 54.0782 21.065C53.7282 21.685 53.2432 22.175 52.6232 22.535C52.0032 22.885 51.2882 23.06 50.4782 23.06ZM50.4782 21.71C50.9982 21.71 51.4582 21.59 51.8582 21.35C52.2582 21.11 52.5682 20.78 52.7882 20.36C53.0182 19.94 53.1332 19.455 53.1332 18.905C53.1332 18.355 53.0182 17.87 52.7882 17.45C52.5682 17.02 52.2582 16.685 51.8582 16.445C51.4582 16.205 50.9982 16.085 50.4782 16.085C49.9582 16.085 49.4982 16.205 49.0982 16.445C48.6982 16.685 48.3832 17.02 48.1532 17.45C47.9232 17.87 47.8082 18.355 47.8082 18.905C47.8082 19.455 47.9232 19.94 48.1532 20.36C48.3832 20.78 48.6982 21.11 49.0982 21.35C49.4982 21.59 49.9582 21.71 50.4782 21.71ZM59.6853 23.12C59.2053 23.12 58.7603 23.07 58.3503 22.97C57.9503 22.87 57.5853 22.735 57.2553 22.565C56.9353 22.385 56.6553 22.19 56.4153 21.98C56.2553 21.83 56.1753 21.655 56.1753 21.455C56.1753 21.245 56.2603 21.075 56.4303 20.945C56.5803 20.825 56.7603 20.775 56.9703 20.795C57.1903 20.805 57.3753 20.88 57.5253 21.02C57.7653 21.23 58.0653 21.41 58.4253 21.56C58.7853 21.7 59.2003 21.77 59.6703 21.77C60.2203 21.77 60.6553 21.655 60.9753 21.425C61.3053 21.185 61.4703 20.88 61.4703 20.51C61.4703 20.18 61.3503 19.92 61.1103 19.73C60.8803 19.53 60.5903 19.425 60.2403 19.415H59.3853C59.1653 19.415 58.9803 19.355 58.8303 19.235C58.6803 19.115 58.6053 18.97 58.6053 18.8C58.6053 18.63 58.6803 18.49 58.8303 18.38C58.9803 18.27 59.1653 18.215 59.3853 18.215H60.2253C60.5553 18.195 60.8003 18.085 60.9603 17.885C61.1303 17.685 61.2153 17.435 61.2153 17.135C61.2153 16.805 61.0753 16.545 60.7953 16.355C60.5153 16.165 60.1103 16.07 59.5803 16.07C59.1503 16.07 58.7603 16.13 58.4103 16.25C58.0603 16.37 57.7703 16.545 57.5403 16.775C57.3803 16.935 57.2053 17.025 57.0153 17.045C56.8353 17.055 56.6603 16.995 56.4903 16.865C56.3603 16.765 56.3003 16.62 56.3103 16.43C56.3303 16.24 56.4153 16.065 56.5653 15.905C56.8853 15.555 57.3153 15.27 57.8553 15.05C58.3953 14.83 58.9603 14.72 59.5503 14.72C60.1603 14.72 60.7003 14.825 61.1703 15.035C61.6403 15.245 62.0103 15.525 62.2803 15.875C62.5503 16.225 62.6853 16.61 62.6853 17.03C62.6853 17.38 62.5903 17.69 62.4003 17.96C62.2203 18.22 61.9753 18.425 61.6653 18.575C61.3653 18.715 61.0303 18.785 60.6603 18.785V18.665C61.0903 18.665 61.4753 18.75 61.8153 18.92C62.1653 19.09 62.4403 19.32 62.6403 19.61C62.8403 19.89 62.9403 20.215 62.9403 20.585C62.9403 21.065 62.7953 21.495 62.5053 21.875C62.2253 22.255 61.8403 22.56 61.3503 22.79C60.8603 23.01 60.3053 23.12 59.6853 23.12ZM65.5847 23C65.3647 23 65.1797 22.93 65.0297 22.79C64.8897 22.64 64.8197 22.455 64.8197 22.235V15.545C64.8397 15.325 64.9197 15.145 65.0597 15.005C65.1997 14.865 65.3747 14.795 65.5847 14.795C65.8147 14.795 65.9997 14.865 66.1397 15.005C66.2797 15.145 66.3497 15.33 66.3497 15.56V18.14H69.2597V18.44C69.8097 18.44 70.2947 18.535 70.7147 18.725C71.1447 18.915 71.4797 19.18 71.7197 19.52C71.9597 19.85 72.0797 20.235 72.0797 20.675C72.0797 21.125 71.9597 21.525 71.7197 21.875C71.4797 22.225 71.1447 22.5 70.7147 22.7C70.2947 22.9 69.8097 23 69.2597 23H65.5847ZM66.3497 21.575H69.2597C69.6597 21.575 69.9847 21.48 70.2347 21.29C70.4847 21.09 70.6097 20.835 70.6097 20.525C70.6097 20.195 70.4847 19.925 70.2347 19.715C69.9847 19.505 69.6597 19.4 69.2597 19.4H66.3497V21.575ZM68.0747 18.95V18.14H69.4997C69.7497 18.14 69.9547 18.045 70.1147 17.855C70.2747 17.655 70.3547 17.405 70.3547 17.105C70.3547 16.845 70.2597 16.63 70.0697 16.46C69.8797 16.29 69.6397 16.205 69.3497 16.205H65.5997V14.795H69.3497C69.8197 14.795 70.2347 14.89 70.5947 15.08C70.9647 15.26 71.2547 15.515 71.4647 15.845C71.6747 16.165 71.7797 16.535 71.7797 16.955C71.7797 17.535 71.5597 18.015 71.1197 18.395C70.6897 18.765 70.1497 18.95 69.4997 18.95H68.0747ZM77.6804 23.06C76.8704 23.06 76.1554 22.885 75.5354 22.535C74.9154 22.175 74.4254 21.685 74.0654 21.065C73.7154 20.435 73.5404 19.715 73.5404 18.905C73.5404 18.085 73.7154 17.365 74.0654 16.745C74.4254 16.115 74.9154 15.625 75.5354 15.275C76.1554 14.915 76.8704 14.735 77.6804 14.735C78.4804 14.735 79.1904 14.915 79.8104 15.275C80.4304 15.625 80.9154 16.115 81.2654 16.745C81.6254 17.365 81.8054 18.085 81.8054 18.905C81.8054 19.715 81.6304 20.435 81.2804 21.065C80.9304 21.685 80.4454 22.175 79.8254 22.535C79.2054 22.885 78.4904 23.06 77.6804 23.06ZM77.6804 21.71C78.2004 21.71 78.6604 21.59 79.0604 21.35C79.4604 21.11 79.7704 20.78 79.9904 20.36C80.2204 19.94 80.3354 19.455 80.3354 18.905C80.3354 18.355 80.2204 17.87 79.9904 17.45C79.7704 17.02 79.4604 16.685 79.0604 16.445C78.6604 16.205 78.2004 16.085 77.6804 16.085C77.1604 16.085 76.7004 16.205 76.3004 16.445C75.9004 16.685 75.5854 17.02 75.3554 17.45C75.1254 17.87 75.0104 18.355 75.0104 18.905C75.0104 19.455 75.1254 19.94 75.3554 20.36C75.5854 20.78 75.9004 21.11 76.3004 21.35C76.7004 21.59 77.1604 21.71 77.6804 21.71ZM90.9824 23C90.7624 23 90.5774 22.93 90.4274 22.79C90.2874 22.64 90.2174 22.455 90.2174 22.235V15.56C90.2174 15.33 90.2874 15.145 90.4274 15.005C90.5774 14.865 90.7624 14.795 90.9824 14.795C91.2124 14.795 91.3924 14.865 91.5224 15.005C91.6524 15.145 91.7174 15.33 91.7174 15.56V22.235C91.7174 22.455 91.6524 22.64 91.5224 22.79C91.3924 22.93 91.2124 23 90.9824 23ZM84.8174 23C84.5974 23 84.4174 22.93 84.2774 22.79C84.1474 22.64 84.0824 22.455 84.0824 22.235V15.56C84.0824 15.33 84.1474 15.145 84.2774 15.005C84.4174 14.865 84.5974 14.795 84.8174 14.795C85.0474 14.795 85.2324 14.865 85.3724 15.005C85.5124 15.145 85.5824 15.33 85.5824 15.56V22.235C85.5824 22.455 85.5124 22.64 85.3724 22.79C85.2324 22.93 85.0474 23 84.8174 23ZM85.3874 19.415V18.065H90.6524V19.415H85.3874ZM97.8742 23.075C97.1842 23.075 96.5642 22.93 96.0142 22.64C95.4742 22.34 95.0442 21.905 94.7242 21.335C94.4142 20.765 94.2592 20.065 94.2592 19.235V15.545C94.2592 15.325 94.3292 15.145 94.4692 15.005C94.6192 14.855 94.8042 14.78 95.0242 14.78C95.2442 14.78 95.4242 14.855 95.5642 15.005C95.7142 15.145 95.7892 15.325 95.7892 15.545V19.235C95.7892 19.795 95.8942 20.26 96.1042 20.63C96.3142 20.99 96.5992 21.26 96.9592 21.44C97.3192 21.61 97.7242 21.695 98.1742 21.695C98.6042 21.695 98.9842 21.61 99.3142 21.44C99.6542 21.27 99.9242 21.04 100.124 20.75C100.324 20.46 100.424 20.135 100.424 19.775H101.369C101.369 20.395 101.214 20.955 100.904 21.455C100.604 21.955 100.189 22.35 99.6592 22.64C99.1392 22.93 98.5442 23.075 97.8742 23.075ZM101.189 23C100.969 23 100.784 22.93 100.634 22.79C100.494 22.64 100.424 22.455 100.424 22.235V15.545C100.424 15.315 100.494 15.13 100.634 14.99C100.784 14.85 100.969 14.78 101.189 14.78C101.419 14.78 101.604 14.85 101.744 14.99C101.884 15.13 101.954 15.315 101.954 15.545V22.235C101.954 22.455 101.884 22.64 101.744 22.79C101.604 22.93 101.419 23 101.189 23ZM115.419 23.015C115.199 23.015 115.014 22.945 114.864 22.805C114.724 22.655 114.654 22.47 114.654 22.25V17.96C114.654 17.33 114.499 16.865 114.189 16.565C113.879 16.255 113.474 16.1 112.974 16.1C112.454 16.1 112.024 16.28 111.684 16.64C111.354 17 111.189 17.46 111.189 18.02H109.944C109.944 17.37 110.084 16.8 110.364 16.31C110.644 15.81 111.034 15.42 111.534 15.14C112.044 14.86 112.624 14.72 113.274 14.72C113.844 14.72 114.349 14.845 114.789 15.095C115.229 15.345 115.569 15.715 115.809 16.205C116.059 16.685 116.184 17.27 116.184 17.96V22.25C116.184 22.47 116.114 22.655 115.974 22.805C115.834 22.945 115.649 23.015 115.419 23.015ZM105.414 23.015C105.194 23.015 105.009 22.945 104.859 22.805C104.719 22.655 104.649 22.47 104.649 22.25V15.575C104.649 15.345 104.719 15.16 104.859 15.02C105.009 14.88 105.194 14.81 105.414 14.81C105.644 14.81 105.829 14.88 105.969 15.02C106.109 15.16 106.179 15.345 106.179 15.575V22.25C106.179 22.47 106.109 22.655 105.969 22.805C105.829 22.945 105.644 23.015 105.414 23.015ZM110.424 23.015C110.204 23.015 110.019 22.945 109.869 22.805C109.729 22.655 109.659 22.47 109.659 22.25V17.96C109.659 17.33 109.504 16.865 109.194 16.565C108.884 16.255 108.479 16.1 107.979 16.1C107.459 16.1 107.029 16.28 106.689 16.64C106.349 17 106.179 17.46 106.179 18.02H105.234C105.234 17.37 105.364 16.8 105.624 16.31C105.884 15.81 106.244 15.42 106.704 15.14C107.164 14.86 107.689 14.72 108.279 14.72C108.849 14.72 109.354 14.845 109.794 15.095C110.234 15.345 110.574 15.715 110.814 16.205C111.064 16.685 111.189 17.27 111.189 17.96V22.25C111.189 22.47 111.119 22.655 110.979 22.805C110.839 22.945 110.654 23.015 110.424 23.015ZM122.431 23.135C121.681 23.135 121.026 23 120.466 22.73C119.916 22.46 119.486 22.08 119.176 21.59C118.876 21.09 118.726 20.505 118.726 19.835V15.545C118.746 15.335 118.826 15.16 118.966 15.02C119.116 14.87 119.291 14.795 119.491 14.795C119.711 14.795 119.891 14.87 120.031 15.02C120.181 15.16 120.256 15.34 120.256 15.56V17.24H122.716C123.366 17.24 123.946 17.355 124.456 17.585C124.976 17.805 125.386 18.13 125.686 18.56C125.986 18.98 126.136 19.485 126.136 20.075C126.136 20.665 125.981 21.19 125.671 21.65C125.371 22.11 124.946 22.475 124.396 22.745C123.846 23.005 123.191 23.135 122.431 23.135ZM122.416 21.725C123.056 21.725 123.591 21.59 124.021 21.32C124.451 21.04 124.666 20.625 124.666 20.075C124.666 19.555 124.481 19.17 124.111 18.92C123.741 18.66 123.276 18.53 122.716 18.53H120.256V19.805C120.256 20.165 120.351 20.49 120.541 20.78C120.731 21.07 120.986 21.3 121.306 21.47C121.636 21.64 122.006 21.725 122.416 21.725Z" fill="white"/>
</svg>
