<svg width="50" height="50" viewBox="0 0 50 50" fill="none" xmlns="http://www.w3.org/2000/svg">
<circle cx="25" cy="25" r="25" fill="#3F98D7"/>
<path fill-rule="evenodd" clip-rule="evenodd" d="M19.993 29.003C20.544 29.003 20.9895 29.4495 20.9895 29.9995C20.9895 30.5495 20.5435 30.9955 19.993 30.9955C19.443 30.9955 18.997 30.5495 18.997 29.9995C18.997 29.4495 19.4435 29.003 19.993 29.003ZM17.0725 26.1495C16.442 21.775 19.4775 17.7185 23.852 17.088C28.2265 16.4575 32.2835 19.493 32.914 23.8675C33.5445 28.242 30.509 32.299 26.1345 32.9295C26.0855 32.937 26.0385 32.937 25.99 32.9425L26.138 32.922C25.591 33.0005 25.085 32.621 25.0055 32.0745C24.927 31.528 25.3065 31.0205 25.853 30.941L25.8515 30.9375C25.853 30.9375 25.854 30.9375 25.8555 30.9375C29.1355 30.465 31.41 27.4235 30.9375 24.1435C30.465 20.863 27.424 18.5885 24.1435 19.061C20.865 19.5335 18.5885 22.575 19.0615 25.855C19.0615 25.8565 19.0615 25.8575 19.0625 25.8575L19.059 25.859C19.1375 26.4055 18.758 26.912 18.2115 26.991C17.665 27.0695 17.1575 26.6905 17.078 26.144L17.1 26.293C17.093 26.244 17.0795 26.198 17.0725 26.1495ZM32.9945 15.5025C32.9945 14.6735 33.6675 14.0005 34.4975 14.0005C35.3185 14.0005 35.984 14.6595 35.997 15.4795V15.5265C35.984 16.3465 35.3185 17.0055 34.4975 17.0055C33.6675 17.0055 32.9945 16.3325 32.9945 15.5025ZM38.3305 38.26C36.5915 40.017 34.1785 41 30.006 41H19.993C15.8205 41 13.408 40.017 11.67 38.26C9.954 36.527 9 34.108 9 30.007V19.994C9 15.8915 9.954 13.474 11.67 11.741C13.408 9.9835 15.8205 9 19.993 9H30.0055C34.1785 9 36.591 9.9835 38.33 11.741C38.4415 11.8525 38.5435 11.975 38.6465 12.096C38.8575 12.279 38.994 12.547 38.994 12.8485C38.994 13.401 38.5465 13.8485 37.994 13.8485C37.692 13.8485 37.424 13.7115 37.241 13.4995L37.228 13.51C37.125 13.3875 37.0285 13.2605 36.9145 13.146C35.3935 11.608 33.148 11.0045 29.496 11.0045H20.4985C16.8475 11.0045 14.6065 11.608 13.0855 13.146C11.584 14.6625 11 16.914 11 20.5025V29.501C11 33.091 11.584 35.3365 13.0855 36.8525C14.6065 38.39 16.8475 39 20.4985 39H29.497C33.149 39 35.3945 38.39 36.9155 36.8525C38.417 35.3365 38.995 33.091 38.995 29.501V20.503C38.995 19.629 38.959 18.8365 38.886 18.113L38.8905 18.112C38.8365 17.5605 39.236 17.0675 39.7885 17.009C40.342 16.952 40.8385 17.354 40.895 17.9065C40.8965 17.921 40.895 17.9345 40.895 17.949H40.8975C40.958 18.586 41 19.2535 41 19.994V30.0065C41 34.108 40.045 36.527 38.3305 38.26Z" fill="white"/>
</svg>
