<svg width="155" height="38" viewBox="0 0 155 38" fill="none" xmlns="http://www.w3.org/2000/svg">
<path d="M10.5 1.75C8.87612 1.75185 7.31928 2.39776 6.17102 3.54602C5.02276 4.69428 4.37685 6.25112 4.375 7.875C4.375 12.5589 9.6565 17.8938 9.88138 18.1186L10.5 18.7372L11.1186 18.1186C11.3435 17.8938 16.625 12.5589 16.625 7.875C16.6231 6.25112 15.9772 4.69428 14.829 3.54602C13.6807 2.39776 12.1239 1.75185 10.5 1.75ZM10.5 16.2164C9.16213 14.7219 6.125 10.9839 6.125 7.875C6.125 6.71468 6.58594 5.60188 7.40641 4.78141C8.22688 3.96094 9.33968 3.5 10.5 3.5C11.6603 3.5 12.7731 3.96094 13.5936 4.78141C14.4141 5.60188 14.875 6.71468 14.875 7.875C14.875 10.9777 11.8361 14.7201 10.5 16.2164Z" fill="#3F98D7"/>
<path d="M10.5 5.25C9.98083 5.25 9.47331 5.40395 9.04163 5.69239C8.60995 5.98083 8.2735 6.3908 8.07482 6.87046C7.87614 7.35011 7.82415 7.87791 7.92544 8.38711C8.02673 8.89631 8.27673 9.36404 8.64385 9.73116C9.01096 10.0983 9.47869 10.3483 9.98789 10.4496C10.4971 10.5508 11.0249 10.4989 11.5045 10.3002C11.9842 10.1015 12.3942 9.76505 12.6826 9.33337C12.971 8.90169 13.125 8.39418 13.125 7.875C13.125 7.17881 12.8484 6.51113 12.3562 6.01884C11.8639 5.52656 11.1962 5.25 10.5 5.25ZM10.5 8.75C10.3269 8.75 10.1578 8.69868 10.0139 8.60254C9.86998 8.50639 9.75783 8.36973 9.69161 8.20985C9.62538 8.04996 9.60805 7.87403 9.64181 7.7043C9.67558 7.53456 9.75891 7.37865 9.88128 7.25628C10.0037 7.13391 10.1596 7.05057 10.3293 7.01681C10.499 6.98305 10.675 7.00038 10.8348 7.06661C10.9947 7.13283 11.1314 7.24498 11.2275 7.38888C11.3237 7.53277 11.375 7.70194 11.375 7.875C11.375 8.10706 11.2828 8.32962 11.1187 8.49372C10.9546 8.65781 10.7321 8.75 10.5 8.75Z" fill="#3F98D7"/>
<path d="M26.925 17.135C26.465 17.135 26.025 17 25.605 16.73C25.415 16.61 25.295 16.455 25.245 16.265C25.205 16.075 25.24 15.895 25.35 15.725C25.46 15.545 25.615 15.44 25.815 15.41C26.015 15.37 26.225 15.41 26.445 15.53C26.515 15.57 26.595 15.605 26.685 15.635C26.775 15.655 26.855 15.665 26.925 15.665C27.195 15.665 27.47 15.54 27.75 15.29C28.04 15.03 28.295 14.67 28.515 14.21L32.64 5.75C32.86 5.31 33.185 5.185 33.615 5.375C34.045 5.565 34.15 5.885 33.93 6.335L29.805 14.81C29.445 15.54 29.02 16.11 28.53 16.52C28.04 16.93 27.505 17.135 26.925 17.135ZM29.115 14.63L24.105 6.41C23.865 6 23.96 5.67 24.39 5.42C24.81 5.18 25.145 5.27 25.395 5.69L30.09 13.865L29.115 14.63ZM36.3172 17.24C36.0372 17.24 35.7922 17.14 35.5822 16.94C35.3822 16.73 35.2822 16.485 35.2822 16.205C35.2822 15.915 35.3822 15.67 35.5822 15.47C35.7922 15.26 36.0372 15.155 36.3172 15.155C36.6072 15.155 36.8522 15.26 37.0522 15.47C37.2522 15.67 37.3522 15.915 37.3522 16.205C37.3522 16.485 37.2522 16.73 37.0522 16.94C36.8522 17.14 36.6072 17.24 36.3172 17.24ZM43.536 17C43.256 17 43.041 16.88 42.891 16.64C42.741 16.4 42.726 16.145 42.846 15.875L47.061 5.81C47.211 5.46 47.456 5.285 47.796 5.285C48.156 5.285 48.401 5.46 48.531 5.81L52.761 15.905C52.871 16.185 52.851 16.44 52.701 16.67C52.561 16.89 52.346 17 52.056 17C51.906 17 51.761 16.96 51.621 16.88C51.491 16.79 51.396 16.67 51.336 16.52L47.616 7.28H48.036L44.256 16.52C44.186 16.68 44.081 16.8 43.941 16.88C43.811 16.96 43.676 17 43.536 17ZM44.331 14.42L44.931 13.13H50.811L51.411 14.42H44.331ZM61.2979 17C61.0779 17 60.8929 16.93 60.7429 16.79C60.6029 16.64 60.5329 16.455 60.5329 16.235V9.56C60.5329 9.33 60.6029 9.145 60.7429 9.005C60.8929 8.865 61.0779 8.795 61.2979 8.795C61.5279 8.795 61.7079 8.865 61.8379 9.005C61.9679 9.145 62.0329 9.33 62.0329 9.56V16.235C62.0329 16.455 61.9679 16.64 61.8379 16.79C61.7079 16.93 61.5279 17 61.2979 17ZM55.1329 17C54.9129 17 54.7329 16.93 54.5929 16.79C54.4629 16.64 54.3979 16.455 54.3979 16.235V9.56C54.3979 9.33 54.4629 9.145 54.5929 9.005C54.7329 8.865 54.9129 8.795 55.1329 8.795C55.3629 8.795 55.5479 8.865 55.6879 9.005C55.8279 9.145 55.8979 9.33 55.8979 9.56V16.235C55.8979 16.455 55.8279 16.64 55.6879 16.79C55.5479 16.93 55.3629 17 55.1329 17ZM55.7029 13.415V12.065H60.9679V13.415H55.7029ZM67.2746 17.06C66.6446 17.06 66.0796 16.965 65.5796 16.775C65.0896 16.575 64.6996 16.3 64.4096 15.95C64.1296 15.6 63.9896 15.2 63.9896 14.75C63.9896 14.3 64.1146 13.915 64.3646 13.595C64.6246 13.275 64.9946 13.005 65.4746 12.785C65.9646 12.565 66.5496 12.39 67.2296 12.26C67.9096 12.12 68.3696 11.955 68.6096 11.765C68.8496 11.565 68.9696 11.31 68.9696 11C68.9696 10.68 68.8096 10.445 68.4896 10.295C68.1696 10.135 67.7996 10.055 67.3796 10.055C67.0296 10.055 66.6796 10.11 66.3296 10.22C65.9896 10.33 65.7046 10.49 65.4746 10.7C65.3246 10.84 65.1596 10.935 64.9796 10.985C64.7996 11.035 64.6546 11.025 64.5446 10.955C64.3546 10.835 64.2346 10.68 64.1846 10.49C64.1446 10.3 64.1896 10.125 64.3196 9.965C64.6196 9.595 65.0396 9.3 65.5796 9.08C66.1296 8.85 66.7346 8.735 67.3946 8.735C67.9546 8.735 68.4646 8.825 68.9246 9.005C69.3846 9.175 69.7496 9.43 70.0196 9.77C70.2996 10.11 70.4396 10.53 70.4396 11.03C70.4396 11.61 70.2046 12.1 69.7346 12.5C69.2646 12.89 68.5496 13.19 67.5896 13.4C66.7996 13.56 66.2546 13.75 65.9546 13.97C65.6546 14.18 65.5096 14.435 65.5196 14.735C65.5296 15.045 65.6796 15.285 65.9696 15.455C66.2596 15.625 66.6946 15.71 67.2746 15.71C67.7946 15.71 68.2346 15.66 68.5946 15.56C68.9646 15.45 69.2546 15.285 69.4646 15.065C69.6046 14.915 69.7646 14.815 69.9446 14.765C70.1246 14.715 70.3096 14.77 70.4996 14.93C70.6696 15.07 70.7546 15.23 70.7546 15.41C70.7546 15.59 70.6796 15.76 70.5296 15.92C70.1996 16.25 69.7396 16.525 69.1496 16.745C68.5596 16.955 67.9346 17.06 67.2746 17.06ZM76.0552 17.06C75.3252 17.06 74.6702 16.88 74.0902 16.52C73.5102 16.15 73.0502 15.655 72.7102 15.035C72.3802 14.405 72.2152 13.695 72.2152 12.905C72.2152 12.115 72.3952 11.405 72.7552 10.775C73.1252 10.145 73.6202 9.65 74.2402 9.29C74.8702 8.92 75.5752 8.735 76.3552 8.735C77.1352 8.735 77.8352 8.92 78.4552 9.29C79.0752 9.65 79.5652 10.145 79.9252 10.775C80.2952 11.405 80.4802 12.115 80.4802 12.905H79.8952C79.8952 13.695 79.7252 14.405 79.3852 15.035C79.0552 15.655 78.6002 16.15 78.0202 16.52C77.4402 16.88 76.7852 17.06 76.0552 17.06ZM76.3552 15.71C76.8652 15.71 77.3202 15.59 77.7202 15.35C78.1202 15.1 78.4352 14.765 78.6652 14.345C78.8952 13.915 79.0102 13.435 79.0102 12.905C79.0102 12.365 78.8952 11.885 78.6652 11.465C78.4352 11.035 78.1202 10.7 77.7202 10.46C77.3202 10.21 76.8652 10.085 76.3552 10.085C75.8552 10.085 75.4002 10.21 74.9902 10.46C74.5902 10.7 74.2702 11.035 74.0302 11.465C73.8002 11.885 73.6852 12.365 73.6852 12.905C73.6852 13.435 73.8002 13.915 74.0302 14.345C74.2702 14.765 74.5902 15.1 74.9902 15.35C75.4002 15.59 75.8552 15.71 76.3552 15.71ZM79.7152 17.015C79.4952 17.015 79.3102 16.945 79.1602 16.805C79.0202 16.655 78.9502 16.47 78.9502 16.25V13.955L79.2352 12.365L80.4802 12.905V16.25C80.4802 16.47 80.4052 16.655 80.2552 16.805C80.1152 16.945 79.9352 17.015 79.7152 17.015ZM83.5222 20.51C83.3022 20.51 83.1172 20.435 82.9672 20.285C82.8272 20.145 82.7572 19.965 82.7572 19.745V12.905C82.7672 12.115 82.9522 11.405 83.3122 10.775C83.6722 10.145 84.1622 9.65 84.7822 9.29C85.4022 8.92 86.1022 8.735 86.8822 8.735C87.6722 8.735 88.3772 8.92 88.9972 9.29C89.6172 9.65 90.1072 10.145 90.4672 10.775C90.8372 11.405 91.0222 12.115 91.0222 12.905C91.0222 13.695 90.8522 14.405 90.5122 15.035C90.1822 15.655 89.7272 16.15 89.1472 16.52C88.5672 16.88 87.9122 17.06 87.1822 17.06C86.5922 17.06 86.0472 16.94 85.5472 16.7C85.0572 16.45 84.6372 16.115 84.2872 15.695V19.745C84.2872 19.965 84.2172 20.145 84.0772 20.285C83.9372 20.435 83.7522 20.51 83.5222 20.51ZM86.8822 15.71C87.3922 15.71 87.8472 15.59 88.2472 15.35C88.6472 15.1 88.9622 14.765 89.1922 14.345C89.4322 13.915 89.5522 13.435 89.5522 12.905C89.5522 12.365 89.4322 11.885 89.1922 11.465C88.9622 11.035 88.6472 10.7 88.2472 10.46C87.8472 10.21 87.3922 10.085 86.8822 10.085C86.3822 10.085 85.9272 10.21 85.5172 10.46C85.1172 10.7 84.8022 11.035 84.5722 11.465C84.3422 11.885 84.2272 12.365 84.2272 12.905C84.2272 13.435 84.3422 13.915 84.5722 14.345C84.8022 14.765 85.1172 15.1 85.5172 15.35C85.9272 15.59 86.3822 15.71 86.8822 15.71ZM97.0241 17.06C96.2241 17.06 95.5091 16.88 94.8791 16.52C94.2591 16.15 93.7691 15.655 93.4091 15.035C93.0591 14.405 92.8841 13.695 92.8841 12.905C92.8841 12.095 93.0591 11.375 93.4091 10.745C93.7591 10.115 94.2391 9.625 94.8491 9.275C95.4591 8.915 96.1591 8.735 96.9491 8.735C97.5391 8.735 98.0791 8.85 98.5691 9.08C99.0591 9.3 99.4991 9.635 99.8891 10.085C100.029 10.245 100.079 10.41 100.039 10.58C99.9991 10.75 99.8891 10.9 99.7091 11.03C99.5691 11.13 99.4141 11.165 99.2441 11.135C99.0741 11.095 98.9191 11.005 98.7791 10.865C98.2891 10.345 97.6791 10.085 96.9491 10.085C96.4391 10.085 95.9891 10.205 95.5991 10.445C95.2091 10.675 94.9041 11 94.6841 11.42C94.4641 11.84 94.3541 12.335 94.3541 12.905C94.3541 13.445 94.4641 13.925 94.6841 14.345C94.9141 14.765 95.2291 15.1 95.6291 15.35C96.0291 15.59 96.4941 15.71 97.0241 15.71C97.3741 15.71 97.6791 15.67 97.9391 15.59C98.2091 15.5 98.4541 15.365 98.6741 15.185C98.8341 15.055 98.9991 14.985 99.1691 14.975C99.3391 14.955 99.4891 15 99.6191 15.11C99.7891 15.25 99.8841 15.41 99.9041 15.59C99.9241 15.76 99.8641 15.915 99.7241 16.055C99.0041 16.725 98.1041 17.06 97.0241 17.06ZM108.973 16.82C108.843 16.94 108.658 17 108.418 17C108.188 16.99 108.008 16.92 107.878 16.79L104.233 12.875L107.668 9.035C107.798 8.895 107.978 8.815 108.208 8.795C108.448 8.775 108.633 8.825 108.763 8.945C108.913 9.085 108.998 9.245 109.018 9.425C109.038 9.595 108.983 9.75 108.853 9.89L106.138 12.8L109.018 15.89C109.148 16.02 109.213 16.175 109.213 16.355C109.213 16.525 109.133 16.68 108.973 16.82ZM103.033 17.015C102.813 17.015 102.638 16.945 102.508 16.805C102.378 16.655 102.313 16.47 102.313 16.25V9.56C102.313 9.33 102.378 9.145 102.508 9.005C102.638 8.865 102.813 8.795 103.033 8.795C103.263 8.795 103.448 8.865 103.588 9.005C103.738 9.145 103.813 9.33 103.813 9.56V12.065H105.733V13.475H103.813V16.25C103.813 16.47 103.738 16.655 103.588 16.805C103.448 16.945 103.263 17.015 103.033 17.015ZM113.76 17.06C113.03 17.06 112.375 16.88 111.795 16.52C111.215 16.15 110.755 15.655 110.415 15.035C110.085 14.405 109.92 13.695 109.92 12.905C109.92 12.115 110.1 11.405 110.46 10.775C110.83 10.145 111.325 9.65 111.945 9.29C112.575 8.92 113.28 8.735 114.06 8.735C114.84 8.735 115.54 8.92 116.16 9.29C116.78 9.65 117.27 10.145 117.63 10.775C118 11.405 118.185 12.115 118.185 12.905H117.6C117.6 13.695 117.43 14.405 117.09 15.035C116.76 15.655 116.305 16.15 115.725 16.52C115.145 16.88 114.49 17.06 113.76 17.06ZM114.06 15.71C114.57 15.71 115.025 15.59 115.425 15.35C115.825 15.1 116.14 14.765 116.37 14.345C116.6 13.915 116.715 13.435 116.715 12.905C116.715 12.365 116.6 11.885 116.37 11.465C116.14 11.035 115.825 10.7 115.425 10.46C115.025 10.21 114.57 10.085 114.06 10.085C113.56 10.085 113.105 10.21 112.695 10.46C112.295 10.7 111.975 11.035 111.735 11.465C111.505 11.885 111.39 12.365 111.39 12.905C111.39 13.435 111.505 13.915 111.735 14.345C111.975 14.765 112.295 15.1 112.695 15.35C113.105 15.59 113.56 15.71 114.06 15.71ZM117.42 17.015C117.2 17.015 117.015 16.945 116.865 16.805C116.725 16.655 116.655 16.47 116.655 16.25V13.955L116.94 12.365L118.185 12.905V16.25C118.185 16.47 118.11 16.655 117.96 16.805C117.82 16.945 117.64 17.015 117.42 17.015ZM125.652 17C125.442 17 125.267 16.93 125.127 16.79C124.987 16.64 124.917 16.455 124.917 16.235V14.255H122.802V14.06C122.272 14.06 121.802 13.955 121.392 13.745C120.982 13.535 120.662 13.245 120.432 12.875C120.202 12.505 120.087 12.075 120.087 11.585C120.087 11.055 120.212 10.58 120.462 10.16C120.722 9.74 121.072 9.41 121.512 9.17C121.962 8.92 122.477 8.795 123.057 8.795H125.652C125.882 8.795 126.067 8.865 126.207 9.005C126.347 9.145 126.417 9.33 126.417 9.56V16.25C126.407 16.47 126.332 16.65 126.192 16.79C126.062 16.93 125.882 17 125.652 17ZM120.327 16.82C120.167 16.68 120.092 16.525 120.102 16.355C120.112 16.185 120.172 16.03 120.282 15.89L122.112 13.505H124.107L121.542 16.7C121.372 16.92 121.162 17.025 120.912 17.015C120.662 17.005 120.467 16.94 120.327 16.82ZM123.057 12.995H124.917V10.22H123.057C122.657 10.22 122.307 10.35 122.007 10.61C121.707 10.86 121.557 11.185 121.557 11.585C121.557 12.005 121.707 12.345 122.007 12.605C122.307 12.865 122.657 12.995 123.057 12.995ZM135.779 17C135.579 17 135.404 16.925 135.254 16.775C135.104 16.625 135.029 16.445 135.029 16.235V7.085L133.934 7.55C133.764 7.62 133.604 7.655 133.454 7.655C133.234 7.655 133.049 7.585 132.899 7.445C132.759 7.305 132.689 7.125 132.689 6.905C132.689 6.745 132.729 6.6 132.809 6.47C132.889 6.34 133.014 6.245 133.184 6.185L135.524 5.345C135.574 5.325 135.624 5.31 135.674 5.3C135.724 5.29 135.769 5.285 135.809 5.285C136.039 5.285 136.219 5.36 136.349 5.51C136.489 5.65 136.559 5.835 136.559 6.065V16.235C136.559 16.445 136.484 16.625 136.334 16.775C136.184 16.925 135.999 17 135.779 17ZM142.388 17C141.628 17 140.978 16.77 140.438 16.31C139.908 15.84 139.503 15.17 139.223 14.3C138.943 13.42 138.803 12.365 138.803 11.135C138.803 9.905 138.943 8.855 139.223 7.985C139.503 7.105 139.908 6.435 140.438 5.975C140.978 5.505 141.628 5.27 142.388 5.27C143.148 5.27 143.793 5.51 144.323 5.99C144.863 6.46 145.273 7.135 145.553 8.015C145.833 8.885 145.973 9.925 145.973 11.135C145.973 12.345 145.833 13.39 145.553 14.27C145.273 15.14 144.863 15.815 144.323 16.295C143.793 16.765 143.148 17 142.388 17ZM142.388 15.44C142.848 15.44 143.228 15.255 143.528 14.885C143.828 14.505 144.053 13.99 144.203 13.34C144.353 12.69 144.428 11.955 144.428 11.135C144.428 10.315 144.353 9.58 144.203 8.93C144.053 8.28 143.828 7.765 143.528 7.385C143.228 7.005 142.848 6.815 142.388 6.815C141.928 6.815 141.548 7.005 141.248 7.385C140.948 7.755 140.723 8.265 140.573 8.915C140.423 9.565 140.348 10.305 140.348 11.135C140.348 11.965 140.423 12.705 140.573 13.355C140.723 14.005 140.948 14.515 141.248 14.885C141.558 15.255 141.938 15.44 142.388 15.44ZM147.976 17C147.776 17 147.601 16.925 147.451 16.775C147.301 16.625 147.226 16.445 147.226 16.235C147.226 16.155 147.236 16.08 147.256 16.01C147.286 15.93 147.321 15.845 147.361 15.755L151.666 6.815H147.106C146.886 6.815 146.701 6.745 146.551 6.605C146.411 6.455 146.341 6.27 146.341 6.05C146.341 5.83 146.411 5.65 146.551 5.51C146.701 5.36 146.886 5.285 147.106 5.285H152.821C153.031 5.285 153.211 5.36 153.361 5.51C153.511 5.66 153.586 5.84 153.586 6.05C153.586 6.12 153.576 6.19 153.556 6.26C153.536 6.32 153.511 6.385 153.481 6.455L148.681 16.58C148.521 16.86 148.286 17 147.976 17ZM59.8317 34.06C59.0217 34.06 58.3067 33.885 57.6867 33.535C57.0667 33.175 56.5767 32.685 56.2167 32.065C55.8667 31.435 55.6917 30.715 55.6917 29.905C55.6917 29.085 55.8667 28.365 56.2167 27.745C56.5767 27.115 57.0667 26.625 57.6867 26.275C58.3067 25.915 59.0217 25.735 59.8317 25.735C60.6317 25.735 61.3417 25.915 61.9617 26.275C62.5817 26.625 63.0667 27.115 63.4167 27.745C63.7767 28.365 63.9567 29.085 63.9567 29.905C63.9567 30.715 63.7817 31.435 63.4317 32.065C63.0817 32.685 62.5967 33.175 61.9767 33.535C61.3567 33.885 60.6417 34.06 59.8317 34.06ZM59.8317 32.71C60.3517 32.71 60.8117 32.59 61.2117 32.35C61.6117 32.11 61.9217 31.78 62.1417 31.36C62.3717 30.94 62.4867 30.455 62.4867 29.905C62.4867 29.355 62.3717 28.87 62.1417 28.45C61.9217 28.02 61.6117 27.685 61.2117 27.445C60.8117 27.205 60.3517 27.085 59.8317 27.085C59.3117 27.085 58.8517 27.205 58.4517 27.445C58.0517 27.685 57.7367 28.02 57.5067 28.45C57.2767 28.87 57.1617 29.355 57.1617 29.905C57.1617 30.455 57.2767 30.94 57.5067 31.36C57.7367 31.78 58.0517 32.11 58.4517 32.35C58.8517 32.59 59.3117 32.71 59.8317 32.71ZM71.4538 34.06V32.71C71.9738 32.7 72.4288 32.575 72.8188 32.335C73.2188 32.095 73.5288 31.765 73.7488 31.345C73.9788 30.925 74.0938 30.445 74.0938 29.905C74.0938 29.355 73.9788 28.87 73.7488 28.45C73.5288 28.03 73.2188 27.7 72.8188 27.46C72.4288 27.21 71.9738 27.085 71.4538 27.085V25.735C72.2638 25.735 72.9738 25.915 73.5838 26.275C74.2038 26.635 74.6888 27.13 75.0388 27.76C75.3888 28.38 75.5638 29.095 75.5638 29.905C75.5638 30.705 75.3888 31.42 75.0388 32.05C74.6888 32.67 74.2038 33.16 73.5838 33.52C72.9738 33.87 72.2638 34.05 71.4538 34.06ZM69.9238 34.06C69.1138 34.05 68.3988 33.87 67.7788 33.52C67.1688 33.16 66.6888 32.67 66.3388 32.05C65.9888 31.42 65.8138 30.705 65.8138 29.905C65.8138 29.095 65.9888 28.38 66.3388 27.76C66.6888 27.13 67.1688 26.635 67.7788 26.275C68.3988 25.915 69.1138 25.735 69.9238 25.735V27.085C69.4138 27.085 68.9588 27.21 68.5588 27.46C68.1588 27.7 67.8438 28.03 67.6138 28.45C67.3938 28.87 67.2838 29.355 67.2838 29.905C67.2838 30.445 67.3938 30.925 67.6138 31.345C67.8438 31.765 68.1588 32.095 68.5588 32.335C68.9588 32.575 69.4138 32.7 69.9238 32.71V34.06ZM70.6888 37.51C70.4688 37.51 70.2838 37.435 70.1338 37.285C69.9938 37.145 69.9238 36.965 69.9238 36.745V23.05C69.9238 22.82 69.9938 22.635 70.1338 22.495C70.2838 22.355 70.4688 22.285 70.6888 22.285C70.9188 22.285 71.1038 22.355 71.2438 22.495C71.3838 22.635 71.4538 22.82 71.4538 23.05V36.745C71.4538 36.965 71.3838 37.145 71.2438 37.285C71.1038 37.435 70.9188 37.51 70.6888 37.51ZM81.3 34.075C80.61 34.075 79.99 33.93 79.44 33.64C78.9 33.34 78.47 32.905 78.15 32.335C77.84 31.765 77.685 31.065 77.685 30.235V26.545C77.685 26.325 77.755 26.145 77.895 26.005C78.045 25.855 78.23 25.78 78.45 25.78C78.67 25.78 78.85 25.855 78.99 26.005C79.14 26.145 79.215 26.325 79.215 26.545V30.235C79.215 30.795 79.32 31.26 79.53 31.63C79.74 31.99 80.025 32.26 80.385 32.44C80.745 32.61 81.15 32.695 81.6 32.695C82.03 32.695 82.41 32.61 82.74 32.44C83.08 32.27 83.35 32.04 83.55 31.75C83.75 31.46 83.85 31.135 83.85 30.775H84.795C84.795 31.395 84.64 31.955 84.33 32.455C84.03 32.955 83.615 33.35 83.085 33.64C82.565 33.93 81.97 34.075 81.3 34.075ZM84.615 34C84.395 34 84.21 33.93 84.06 33.79C83.92 33.64 83.85 33.455 83.85 33.235V26.545C83.85 26.315 83.92 26.13 84.06 25.99C84.21 25.85 84.395 25.78 84.615 25.78C84.845 25.78 85.03 25.85 85.17 25.99C85.31 26.13 85.38 26.315 85.38 26.545V33.235C85.38 33.455 85.31 33.64 85.17 33.79C85.03 33.93 84.845 34 84.615 34ZM91.7946 34.06C90.9946 34.06 90.2796 33.88 89.6496 33.52C89.0296 33.15 88.5396 32.655 88.1796 32.035C87.8296 31.405 87.6546 30.695 87.6546 29.905C87.6546 29.095 87.8296 28.375 88.1796 27.745C88.5296 27.115 89.0096 26.625 89.6196 26.275C90.2296 25.915 90.9296 25.735 91.7196 25.735C92.3096 25.735 92.8496 25.85 93.3396 26.08C93.8296 26.3 94.2696 26.635 94.6596 27.085C94.7996 27.245 94.8496 27.41 94.8096 27.58C94.7696 27.75 94.6596 27.9 94.4796 28.03C94.3396 28.13 94.1846 28.165 94.0146 28.135C93.8446 28.095 93.6896 28.005 93.5496 27.865C93.0596 27.345 92.4496 27.085 91.7196 27.085C91.2096 27.085 90.7596 27.205 90.3696 27.445C89.9796 27.675 89.6746 28 89.4546 28.42C89.2346 28.84 89.1246 29.335 89.1246 29.905C89.1246 30.445 89.2346 30.925 89.4546 31.345C89.6846 31.765 89.9996 32.1 90.3996 32.35C90.7996 32.59 91.2646 32.71 91.7946 32.71C92.1446 32.71 92.4496 32.67 92.7096 32.59C92.9796 32.5 93.2246 32.365 93.4446 32.185C93.6046 32.055 93.7696 31.985 93.9396 31.975C94.1096 31.955 94.2596 32 94.3896 32.11C94.5596 32.25 94.6546 32.41 94.6746 32.59C94.6946 32.76 94.6346 32.915 94.4946 33.055C93.7746 33.725 92.8746 34.06 91.7946 34.06ZM101.868 34C101.648 34 101.463 33.925 101.313 33.775C101.173 33.625 101.103 33.445 101.103 33.235C101.103 33.015 101.173 32.835 101.313 32.695L105.573 27.715C105.873 27.365 106.103 27.035 106.263 26.725C106.433 26.415 106.518 26.12 106.518 25.84C106.518 25.4 106.443 25.02 106.293 24.7C106.143 24.38 105.928 24.135 105.648 23.965C105.368 23.785 105.033 23.695 104.643 23.695C104.263 23.695 103.918 23.795 103.608 23.995C103.308 24.185 103.068 24.445 102.888 24.775C102.718 25.095 102.633 25.45 102.633 25.84C102.633 26.04 102.558 26.215 102.408 26.365C102.268 26.515 102.088 26.59 101.868 26.59C101.658 26.59 101.478 26.515 101.328 26.365C101.178 26.215 101.103 26.04 101.103 25.84C101.103 25.16 101.258 24.555 101.568 24.025C101.878 23.485 102.298 23.06 102.828 22.75C103.368 22.44 103.973 22.285 104.643 22.285C105.323 22.285 105.913 22.43 106.413 22.72C106.913 23.01 107.298 23.42 107.568 23.95C107.848 24.48 107.988 25.11 107.988 25.84C107.988 26.16 107.918 26.485 107.778 26.815C107.648 27.145 107.478 27.46 107.268 27.76C107.068 28.06 106.863 28.33 106.653 28.57L103.218 32.47H107.418C107.638 32.47 107.823 32.55 107.973 32.71C108.123 32.86 108.198 33.035 108.198 33.235C108.198 33.445 108.123 33.625 107.973 33.775C107.823 33.925 107.638 34 107.418 34H101.868ZM113.281 34C112.521 34 111.871 33.77 111.331 33.31C110.801 32.84 110.396 32.17 110.116 31.3C109.836 30.42 109.696 29.365 109.696 28.135C109.696 26.905 109.836 25.855 110.116 24.985C110.396 24.105 110.801 23.435 111.331 22.975C111.871 22.505 112.521 22.27 113.281 22.27C114.041 22.27 114.686 22.51 115.216 22.99C115.756 23.46 116.166 24.135 116.446 25.015C116.726 25.885 116.866 26.925 116.866 28.135C116.866 29.345 116.726 30.39 116.446 31.27C116.166 32.14 115.756 32.815 115.216 33.295C114.686 33.765 114.041 34 113.281 34ZM113.281 32.44C113.741 32.44 114.121 32.255 114.421 31.885C114.721 31.505 114.946 30.99 115.096 30.34C115.246 29.69 115.321 28.955 115.321 28.135C115.321 27.315 115.246 26.58 115.096 25.93C114.946 25.28 114.721 24.765 114.421 24.385C114.121 24.005 113.741 23.815 113.281 23.815C112.821 23.815 112.441 24.005 112.141 24.385C111.841 24.755 111.616 25.265 111.466 25.915C111.316 26.565 111.241 27.305 111.241 28.135C111.241 28.965 111.316 29.705 111.466 30.355C111.616 31.005 111.841 31.515 112.141 31.885C112.451 32.255 112.831 32.44 113.281 32.44ZM124.398 34C124.198 34 124.028 33.925 123.888 33.775C123.748 33.625 123.678 33.445 123.678 33.235V31.345H118.683C118.453 31.345 118.273 31.275 118.143 31.135C118.013 30.995 117.938 30.835 117.918 30.655C117.908 30.465 117.958 30.295 118.068 30.145L123.813 22.615C123.893 22.515 123.983 22.435 124.083 22.375C124.193 22.315 124.313 22.285 124.443 22.285C124.653 22.285 124.823 22.36 124.953 22.51C125.083 22.66 125.148 22.845 125.148 23.065V29.965H126.048C126.258 29.965 126.438 30.015 126.588 30.115C126.738 30.215 126.813 30.395 126.813 30.655C126.813 30.845 126.738 31.01 126.588 31.15C126.438 31.28 126.258 31.345 126.048 31.345H125.148V33.235C125.148 33.445 125.078 33.625 124.938 33.775C124.798 33.925 124.618 34 124.398 34ZM119.583 30.385L119.178 29.965H123.678V23.785L124.143 24.385L119.583 30.385Z" fill="black"/>
</svg>
