<svg width="298" height="73" viewBox="0 0 298 73" fill="none" xmlns="http://www.w3.org/2000/svg">
<path d="M20.171 3.36182C17.0515 3.36538 14.0607 4.60619 11.8548 6.81206C9.64898 9.01793 8.40816 12.0087 8.4046 15.1283C8.4046 24.1262 18.5506 34.3748 18.9826 34.8068L20.171 35.9952L21.3595 34.8068C21.7915 34.3748 31.9375 24.1262 31.9375 15.1283C31.9339 12.0087 30.6931 9.01793 28.4873 6.81206C26.2814 4.60619 23.2906 3.36538 20.171 3.36182ZM20.171 31.1525C17.6009 28.2815 11.7664 21.1006 11.7664 15.1283C11.7664 12.8992 12.6519 10.7615 14.2281 9.18531C15.8043 7.60914 17.942 6.72366 20.171 6.72366C22.4001 6.72366 24.5378 7.60914 26.114 9.18531C27.6902 10.7615 28.5757 12.8992 28.5757 15.1283C28.5757 21.0888 22.7378 28.2781 20.171 31.1525Z" fill="#3F98D7"/>
<path d="M20.171 10.0854C19.1737 10.0854 18.1987 10.3812 17.3694 10.9353C16.5402 11.4894 15.8938 12.277 15.5121 13.1984C15.1305 14.1199 15.0306 15.1338 15.2252 16.112C15.4198 17.0902 15.9 17.9887 16.6053 18.694C17.3105 19.3992 18.2091 19.8795 19.1873 20.0741C20.1655 20.2687 21.1794 20.1688 22.1008 19.7871C23.0223 19.4054 23.8098 18.7591 24.364 17.9298C24.9181 17.1005 25.2138 16.1256 25.2138 15.1282C25.2138 13.7908 24.6825 12.5081 23.7368 11.5624C22.7911 10.6167 21.5085 10.0854 20.171 10.0854ZM20.171 16.8091C19.8386 16.8091 19.5136 16.7105 19.2372 16.5258C18.9608 16.3411 18.7453 16.0786 18.6181 15.7715C18.4909 15.4643 18.4576 15.1263 18.5224 14.8003C18.5873 14.4742 18.7474 14.1747 18.9825 13.9396C19.2175 13.7045 19.517 13.5444 19.8431 13.4796C20.1692 13.4147 20.5072 13.448 20.8143 13.5752C21.1215 13.7025 21.384 13.9179 21.5687 14.1943C21.7534 14.4708 21.852 14.7958 21.852 15.1282C21.852 15.574 21.6749 16.0016 21.3596 16.3168C21.0444 16.632 20.6169 16.8091 20.171 16.8091Z" fill="#3F98D7"/>
<path d="M50.5903 27.8912C49.8849 27.8912 49.2103 27.6842 48.5663 27.2702C48.2749 27.0862 48.0909 26.8485 48.0143 26.5572C47.9529 26.2659 48.0066 25.9899 48.1753 25.7292C48.3439 25.4532 48.5816 25.2922 48.8883 25.2462C49.1949 25.1849 49.5169 25.2462 49.8543 25.4302C49.9616 25.4915 50.0843 25.5452 50.2223 25.5912C50.3603 25.6219 50.4829 25.6372 50.5903 25.6372C51.0043 25.6372 51.4259 25.4455 51.8553 25.0622C52.2999 24.6635 52.6909 24.1115 53.0283 23.4062L59.3533 10.4342C59.6906 9.75954 60.1889 9.56787 60.8483 9.8592C61.5076 10.1505 61.6686 10.6412 61.3313 11.3312L55.0063 24.3262C54.4543 25.4455 53.8026 26.3195 53.0513 26.9482C52.2999 27.5769 51.4796 27.8912 50.5903 27.8912ZM53.9483 24.0502L46.2663 11.4462C45.8983 10.8175 46.0439 10.3115 46.7033 9.9282C47.3473 9.5602 47.8609 9.6982 48.2443 10.3422L55.4433 22.8772L53.9483 24.0502ZM64.9917 28.0522C64.5623 28.0522 64.1867 27.8989 63.8647 27.5922C63.558 27.2702 63.4047 26.8945 63.4047 26.4652C63.4047 26.0205 63.558 25.6449 63.8647 25.3382C64.1867 25.0162 64.5623 24.8552 64.9917 24.8552C65.4363 24.8552 65.812 25.0162 66.1187 25.3382C66.4253 25.6449 66.5787 26.0205 66.5787 26.4652C66.5787 26.8945 66.4253 27.2702 66.1187 27.5922C65.812 27.8989 65.4363 28.0522 64.9917 28.0522ZM76.0604 27.6842C75.6311 27.6842 75.3014 27.5002 75.0714 27.1322C74.8414 26.7642 74.8184 26.3732 75.0024 25.9592L81.4654 10.5262C81.6954 9.98954 82.0711 9.7212 82.5924 9.7212C83.1444 9.7212 83.5201 9.98954 83.7194 10.5262L90.2054 26.0052C90.3741 26.4345 90.3434 26.8255 90.1134 27.1782C89.8988 27.5155 89.5691 27.6842 89.1244 27.6842C88.8944 27.6842 88.6721 27.6229 88.4574 27.5002C88.2581 27.3622 88.1124 27.1782 88.0204 26.9482L82.3164 12.7802H82.9604L77.1644 26.9482C77.0571 27.1935 76.8961 27.3775 76.6814 27.5002C76.4821 27.6229 76.2751 27.6842 76.0604 27.6842ZM77.2794 23.7282L78.1994 21.7502H87.2154L88.1354 23.7282H77.2794ZM103.295 27.6842C102.958 27.6842 102.674 27.5769 102.444 27.3622C102.23 27.1322 102.122 26.8485 102.122 26.5112V16.2762C102.122 15.9235 102.23 15.6399 102.444 15.4252C102.674 15.2105 102.958 15.1032 103.295 15.1032C103.648 15.1032 103.924 15.2105 104.123 15.4252C104.323 15.6399 104.422 15.9235 104.422 16.2762V26.5112C104.422 26.8485 104.323 27.1322 104.123 27.3622C103.924 27.5769 103.648 27.6842 103.295 27.6842ZM93.8423 27.6842C93.505 27.6842 93.229 27.5769 93.0143 27.3622C92.815 27.1322 92.7153 26.8485 92.7153 26.5112V16.2762C92.7153 15.9235 92.815 15.6399 93.0143 15.4252C93.229 15.2105 93.505 15.1032 93.8423 15.1032C94.195 15.1032 94.4786 15.2105 94.6933 15.4252C94.908 15.6399 95.0153 15.9235 95.0153 16.2762V26.5112C95.0153 26.8485 94.908 27.1322 94.6933 27.3622C94.4786 27.5769 94.195 27.6842 93.8423 27.6842ZM94.7163 22.1872V20.1172H102.789V22.1872H94.7163ZM112.46 27.7762C111.494 27.7762 110.627 27.6305 109.861 27.3392C109.109 27.0325 108.511 26.6109 108.067 26.0742C107.637 25.5375 107.423 24.9242 107.423 24.2342C107.423 23.5442 107.614 22.9539 107.998 22.4632C108.396 21.9725 108.964 21.5585 109.7 21.2212C110.451 20.8839 111.348 20.6155 112.391 20.4162C113.433 20.2015 114.139 19.9485 114.507 19.6572C114.875 19.3505 115.059 18.9595 115.059 18.4842C115.059 17.9935 114.813 17.6332 114.323 17.4032C113.832 17.1579 113.265 17.0352 112.621 17.0352C112.084 17.0352 111.547 17.1195 111.011 17.2882C110.489 17.4569 110.052 17.7022 109.7 18.0242C109.47 18.2389 109.217 18.3845 108.941 18.4612C108.665 18.5379 108.442 18.5225 108.274 18.4152C107.982 18.2312 107.798 17.9935 107.722 17.7022C107.66 17.4109 107.729 17.1425 107.929 16.8972C108.389 16.3299 109.033 15.8775 109.861 15.5402C110.704 15.1875 111.632 15.0112 112.644 15.0112C113.502 15.0112 114.284 15.1492 114.99 15.4252C115.695 15.6859 116.255 16.0769 116.669 16.5982C117.098 17.1195 117.313 17.7635 117.313 18.5302C117.313 19.4195 116.952 20.1709 116.232 20.7842C115.511 21.3822 114.415 21.8422 112.943 22.1642C111.731 22.4095 110.896 22.7009 110.436 23.0382C109.976 23.3602 109.753 23.7512 109.769 24.2112C109.784 24.6865 110.014 25.0545 110.459 25.3152C110.903 25.5759 111.57 25.7062 112.46 25.7062C113.257 25.7062 113.932 25.6295 114.484 25.4762C115.051 25.3075 115.496 25.0545 115.818 24.7172C116.032 24.4872 116.278 24.3339 116.554 24.2572C116.83 24.1805 117.113 24.2649 117.405 24.5102C117.665 24.7249 117.796 24.9702 117.796 25.2462C117.796 25.5222 117.681 25.7829 117.451 26.0282C116.945 26.5342 116.239 26.9559 115.335 27.2932C114.43 27.6152 113.472 27.7762 112.46 27.7762ZM125.923 27.7762C124.804 27.7762 123.799 27.5002 122.91 26.9482C122.021 26.3809 121.315 25.6219 120.794 24.6712C120.288 23.7052 120.035 22.6165 120.035 21.4052C120.035 20.1939 120.311 19.1052 120.863 18.1392C121.43 17.1732 122.189 16.4142 123.14 15.8622C124.106 15.2949 125.187 15.0112 126.383 15.0112C127.579 15.0112 128.652 15.2949 129.603 15.8622C130.554 16.4142 131.305 17.1732 131.857 18.1392C132.424 19.1052 132.708 20.1939 132.708 21.4052H131.811C131.811 22.6165 131.55 23.7052 131.029 24.6712C130.523 25.6219 129.825 26.3809 128.936 26.9482C128.047 27.5002 127.042 27.7762 125.923 27.7762ZM126.383 25.7062C127.165 25.7062 127.863 25.5222 128.476 25.1542C129.089 24.7709 129.572 24.2572 129.925 23.6132C130.278 22.9539 130.454 22.2179 130.454 21.4052C130.454 20.5772 130.278 19.8412 129.925 19.1972C129.572 18.5379 129.089 18.0242 128.476 17.6562C127.863 17.2729 127.165 17.0812 126.383 17.0812C125.616 17.0812 124.919 17.2729 124.29 17.6562C123.677 18.0242 123.186 18.5379 122.818 19.1972C122.465 19.8412 122.289 20.5772 122.289 21.4052C122.289 22.2179 122.465 22.9539 122.818 23.6132C123.186 24.2572 123.677 24.7709 124.29 25.1542C124.919 25.5222 125.616 25.7062 126.383 25.7062ZM131.535 27.7072C131.198 27.7072 130.914 27.5999 130.684 27.3852C130.469 27.1552 130.362 26.8715 130.362 26.5342V23.0152L130.799 20.5772L132.708 21.4052V26.5342C132.708 26.8715 132.593 27.1552 132.363 27.3852C132.148 27.5999 131.872 27.7072 131.535 27.7072ZM137.373 33.0662C137.035 33.0662 136.752 32.9512 136.522 32.7212C136.307 32.5065 136.2 32.2305 136.2 31.8932V21.4052C136.215 20.1939 136.499 19.1052 137.051 18.1392C137.603 17.1732 138.354 16.4142 139.305 15.8622C140.255 15.2949 141.329 15.0112 142.525 15.0112C143.736 15.0112 144.817 15.2949 145.768 15.8622C146.718 16.4142 147.47 17.1732 148.022 18.1392C148.589 19.1052 148.873 20.1939 148.873 21.4052C148.873 22.6165 148.612 23.7052 148.091 24.6712C147.585 25.6219 146.887 26.3809 145.998 26.9482C145.108 27.5002 144.104 27.7762 142.985 27.7762C142.08 27.7762 141.244 27.5922 140.478 27.2242C139.726 26.8409 139.082 26.3272 138.546 25.6832V31.8932C138.546 32.2305 138.438 32.5065 138.224 32.7212C138.009 32.9512 137.725 33.0662 137.373 33.0662ZM142.525 25.7062C143.307 25.7062 144.004 25.5222 144.618 25.1542C145.231 24.7709 145.714 24.2572 146.067 23.6132C146.435 22.9539 146.619 22.2179 146.619 21.4052C146.619 20.5772 146.435 19.8412 146.067 19.1972C145.714 18.5379 145.231 18.0242 144.618 17.6562C144.004 17.2729 143.307 17.0812 142.525 17.0812C141.758 17.0812 141.06 17.2729 140.432 17.6562C139.818 18.0242 139.335 18.5379 138.983 19.1972C138.63 19.8412 138.454 20.5772 138.454 21.4052C138.454 22.2179 138.63 22.9539 138.983 23.6132C139.335 24.2572 139.818 24.7709 140.432 25.1542C141.06 25.5222 141.758 25.7062 142.525 25.7062ZM158.076 27.7762C156.849 27.7762 155.753 27.5002 154.787 26.9482C153.836 26.3809 153.085 25.6219 152.533 24.6712C151.996 23.7052 151.728 22.6165 151.728 21.4052C151.728 20.1632 151.996 19.0592 152.533 18.0932C153.069 17.1272 153.805 16.3759 154.741 15.8392C155.676 15.2872 156.749 15.0112 157.961 15.0112C158.865 15.0112 159.693 15.1875 160.445 15.5402C161.196 15.8775 161.871 16.3912 162.469 17.0812C162.683 17.3265 162.76 17.5795 162.699 17.8402C162.637 18.1009 162.469 18.3309 162.193 18.5302C161.978 18.6835 161.74 18.7372 161.48 18.6912C161.219 18.6299 160.981 18.4919 160.767 18.2772C160.015 17.4799 159.08 17.0812 157.961 17.0812C157.179 17.0812 156.489 17.2652 155.891 17.6332C155.293 17.9859 154.825 18.4842 154.488 19.1282C154.15 19.7722 153.982 20.5312 153.982 21.4052C153.982 22.2332 154.15 22.9692 154.488 23.6132C154.84 24.2572 155.323 24.7709 155.937 25.1542C156.55 25.5222 157.263 25.7062 158.076 25.7062C158.612 25.7062 159.08 25.6449 159.479 25.5222C159.893 25.3842 160.268 25.1772 160.606 24.9012C160.851 24.7019 161.104 24.5945 161.365 24.5792C161.625 24.5485 161.855 24.6175 162.055 24.7862C162.315 25.0009 162.461 25.2462 162.492 25.5222C162.522 25.7829 162.43 26.0205 162.216 26.2352C161.112 27.2625 159.732 27.7762 158.076 27.7762ZM176.397 27.4082C176.198 27.5922 175.914 27.6842 175.546 27.6842C175.193 27.6689 174.917 27.5615 174.718 27.3622L169.129 21.3592L174.396 15.4712C174.595 15.2565 174.871 15.1339 175.224 15.1032C175.592 15.0725 175.876 15.1492 176.075 15.3332C176.305 15.5479 176.435 15.7932 176.466 16.0692C176.497 16.3299 176.412 16.5675 176.213 16.7822L172.05 21.2442L176.466 25.9822C176.665 26.1815 176.765 26.4192 176.765 26.6952C176.765 26.9559 176.642 27.1935 176.397 27.4082ZM167.289 27.7072C166.952 27.7072 166.683 27.5999 166.484 27.3852C166.285 27.1552 166.185 26.8715 166.185 26.5342V16.2762C166.185 15.9235 166.285 15.6399 166.484 15.4252C166.683 15.2105 166.952 15.1032 167.289 15.1032C167.642 15.1032 167.925 15.2105 168.14 15.4252C168.37 15.6399 168.485 15.9235 168.485 16.2762V20.1172H171.429V22.2792H168.485V26.5342C168.485 26.8715 168.37 27.1552 168.14 27.3852C167.925 27.5999 167.642 27.7072 167.289 27.7072ZM183.738 27.7762C182.618 27.7762 181.614 27.5002 180.725 26.9482C179.835 26.3809 179.13 25.6219 178.609 24.6712C178.103 23.7052 177.85 22.6165 177.85 21.4052C177.85 20.1939 178.126 19.1052 178.678 18.1392C179.245 17.1732 180.004 16.4142 180.955 15.8622C181.921 15.2949 183.002 15.0112 184.198 15.0112C185.394 15.0112 186.467 15.2949 187.418 15.8622C188.368 16.4142 189.12 17.1732 189.672 18.1392C190.239 19.1052 190.523 20.1939 190.523 21.4052H189.626C189.626 22.6165 189.365 23.7052 188.844 24.6712C188.338 25.6219 187.64 26.3809 186.751 26.9482C185.861 27.5002 184.857 27.7762 183.738 27.7762ZM184.198 25.7062C184.98 25.7062 185.677 25.5222 186.291 25.1542C186.904 24.7709 187.387 24.2572 187.74 23.6132C188.092 22.9539 188.269 22.2179 188.269 21.4052C188.269 20.5772 188.092 19.8412 187.74 19.1972C187.387 18.5379 186.904 18.0242 186.291 17.6562C185.677 17.2729 184.98 17.0812 184.198 17.0812C183.431 17.0812 182.733 17.2729 182.105 17.6562C181.491 18.0242 181.001 18.5379 180.633 19.1972C180.28 19.8412 180.104 20.5772 180.104 21.4052C180.104 22.2179 180.28 22.9539 180.633 23.6132C181.001 24.2572 181.491 24.7709 182.105 25.1542C182.733 25.5222 183.431 25.7062 184.198 25.7062ZM189.35 27.7072C189.012 27.7072 188.729 27.5999 188.499 27.3852C188.284 27.1552 188.177 26.8715 188.177 26.5342V23.0152L188.614 20.5772L190.523 21.4052V26.5342C190.523 26.8715 190.408 27.1552 190.178 27.3852C189.963 27.5999 189.687 27.7072 189.35 27.7072ZM201.972 27.6842C201.65 27.6842 201.382 27.5769 201.167 27.3622C200.952 27.1322 200.845 26.8485 200.845 26.5112V23.4752H197.602V23.1762C196.789 23.1762 196.069 23.0152 195.44 22.6932C194.811 22.3712 194.321 21.9265 193.968 21.3592C193.615 20.7919 193.439 20.1325 193.439 19.3812C193.439 18.5685 193.631 17.8402 194.014 17.1962C194.413 16.5522 194.949 16.0462 195.624 15.6782C196.314 15.2949 197.104 15.1032 197.993 15.1032H201.972C202.325 15.1032 202.608 15.2105 202.823 15.4252C203.038 15.6399 203.145 15.9235 203.145 16.2762V26.5342C203.13 26.8715 203.015 27.1475 202.8 27.3622C202.601 27.5769 202.325 27.6842 201.972 27.6842ZM193.807 27.4082C193.562 27.1935 193.447 26.9559 193.462 26.6952C193.477 26.4345 193.569 26.1969 193.738 25.9822L196.544 22.3252H199.603L195.67 27.2242C195.409 27.5615 195.087 27.7225 194.704 27.7072C194.321 27.6919 194.022 27.5922 193.807 27.4082ZM197.993 21.5432H200.845V17.2882H197.993C197.38 17.2882 196.843 17.4875 196.383 17.8862C195.923 18.2695 195.693 18.7679 195.693 19.3812C195.693 20.0252 195.923 20.5465 196.383 20.9452C196.843 21.3439 197.38 21.5432 197.993 21.5432ZM217.5 27.6842C217.193 27.6842 216.925 27.5692 216.695 27.3392C216.465 27.1092 216.35 26.8332 216.35 26.5112V12.4812L214.671 13.1942C214.41 13.3015 214.165 13.3552 213.935 13.3552C213.597 13.3552 213.314 13.2479 213.084 13.0332C212.869 12.8185 212.762 12.5425 212.762 12.2052C212.762 11.9599 212.823 11.7375 212.946 11.5382C213.068 11.3389 213.26 11.1932 213.521 11.1012L217.109 9.8132C217.185 9.78254 217.262 9.75954 217.339 9.7442C217.415 9.72887 217.484 9.7212 217.546 9.7212C217.898 9.7212 218.174 9.8362 218.374 10.0662C218.588 10.2809 218.696 10.5645 218.696 10.9172V26.5112C218.696 26.8332 218.581 27.1092 218.351 27.3392C218.121 27.5692 217.837 27.6842 217.5 27.6842ZM227.633 27.6842C226.468 27.6842 225.471 27.3315 224.643 26.6262C223.83 25.9055 223.209 24.8782 222.78 23.5442C222.351 22.1949 222.136 20.5772 222.136 18.6912C222.136 16.8052 222.351 15.1952 222.78 13.8612C223.209 12.5119 223.83 11.4845 224.643 10.7792C225.471 10.0585 226.468 9.6982 227.633 9.6982C228.798 9.6982 229.787 10.0662 230.6 10.8022C231.428 11.5229 232.057 12.5579 232.486 13.9072C232.915 15.2412 233.13 16.8359 233.13 18.6912C233.13 20.5465 232.915 22.1489 232.486 23.4982C232.057 24.8322 231.428 25.8672 230.6 26.6032C229.787 27.3239 228.798 27.6842 227.633 27.6842ZM227.633 25.2922C228.338 25.2922 228.921 25.0085 229.381 24.4412C229.841 23.8585 230.186 23.0689 230.416 22.0722C230.646 21.0755 230.761 19.9485 230.761 18.6912C230.761 17.4339 230.646 16.3069 230.416 15.3102C230.186 14.3135 229.841 13.5239 229.381 12.9412C228.921 12.3585 228.338 12.0672 227.633 12.0672C226.928 12.0672 226.345 12.3585 225.885 12.9412C225.425 13.5085 225.08 14.2905 224.85 15.2872C224.62 16.2839 224.505 17.4185 224.505 18.6912C224.505 19.9639 224.62 21.0985 224.85 22.0952C225.08 23.0919 225.425 23.8739 225.885 24.4412C226.36 25.0085 226.943 25.2922 227.633 25.2922ZM236.202 27.6842C235.895 27.6842 235.627 27.5692 235.397 27.3392C235.167 27.1092 235.052 26.8332 235.052 26.5112C235.052 26.3885 235.067 26.2735 235.098 26.1662C235.144 26.0435 235.198 25.9132 235.259 25.7752L241.86 12.0672H234.868C234.531 12.0672 234.247 11.9599 234.017 11.7452C233.802 11.5152 233.695 11.2315 233.695 10.8942C233.695 10.5569 233.802 10.2809 234.017 10.0662C234.247 9.8362 234.531 9.7212 234.868 9.7212H243.631C243.953 9.7212 244.229 9.8362 244.459 10.0662C244.689 10.2962 244.804 10.5722 244.804 10.8942C244.804 11.0015 244.789 11.1089 244.758 11.2162C244.727 11.3082 244.689 11.4079 244.643 11.5152L237.283 27.0402C237.038 27.4695 236.677 27.6842 236.202 27.6842ZM101.047 53.7762C99.8052 53.7762 98.7089 53.5079 97.7582 52.9712C96.8076 52.4192 96.0562 51.6679 95.5042 50.7172C94.9676 49.7512 94.6992 48.6472 94.6992 47.4052C94.6992 46.1479 94.9676 45.0439 95.5042 44.0932C96.0562 43.1272 96.8076 42.3759 97.7582 41.8392C98.7089 41.2872 99.8052 41.0112 101.047 41.0112C102.274 41.0112 103.363 41.2872 104.313 41.8392C105.264 42.3759 106.008 43.1272 106.544 44.0932C107.096 45.0439 107.372 46.1479 107.372 47.4052C107.372 48.6472 107.104 49.7512 106.567 50.7172C106.031 51.6679 105.287 52.4192 104.336 52.9712C103.386 53.5079 102.289 53.7762 101.047 53.7762ZM101.047 51.7062C101.845 51.7062 102.55 51.5222 103.163 51.1542C103.777 50.7862 104.252 50.2802 104.589 49.6362C104.942 48.9922 105.118 48.2485 105.118 47.4052C105.118 46.5619 104.942 45.8182 104.589 45.1742C104.252 44.5149 103.777 44.0012 103.163 43.6332C102.55 43.2652 101.845 43.0812 101.047 43.0812C100.25 43.0812 99.5446 43.2652 98.9312 43.6332C98.3179 44.0012 97.8349 44.5149 97.4822 45.1742C97.1296 45.8182 96.9532 46.5619 96.9532 47.4052C96.9532 48.2485 97.1296 48.9922 97.4822 49.6362C97.8349 50.2802 98.3179 50.7862 98.9312 51.1542C99.5446 51.5222 100.25 51.7062 101.047 51.7062ZM118.868 53.7762V51.7062C119.665 51.6909 120.363 51.4992 120.961 51.1312C121.574 50.7632 122.049 50.2572 122.387 49.6132C122.739 48.9692 122.916 48.2332 122.916 47.4052C122.916 46.5619 122.739 45.8182 122.387 45.1742C122.049 44.5302 121.574 44.0242 120.961 43.6562C120.363 43.2729 119.665 43.0812 118.868 43.0812V41.0112C120.11 41.0112 121.198 41.2872 122.134 41.8392C123.084 42.3912 123.828 43.1502 124.365 44.1162C124.901 45.0669 125.17 46.1632 125.17 47.4052C125.17 48.6319 124.901 49.7282 124.365 50.6942C123.828 51.6449 123.084 52.3962 122.134 52.9482C121.198 53.4849 120.11 53.7609 118.868 53.7762ZM116.522 53.7762C115.28 53.7609 114.183 53.4849 113.233 52.9482C112.297 52.3962 111.561 51.6449 111.025 50.6942C110.488 49.7282 110.22 48.6319 110.22 47.4052C110.22 46.1632 110.488 45.0669 111.025 44.1162C111.561 43.1502 112.297 42.3912 113.233 41.8392C114.183 41.2872 115.28 41.0112 116.522 41.0112V43.0812C115.74 43.0812 115.042 43.2729 114.429 43.6562C113.815 44.0242 113.332 44.5302 112.98 45.1742C112.642 45.8182 112.474 46.5619 112.474 47.4052C112.474 48.2332 112.642 48.9692 112.98 49.6132C113.332 50.2572 113.815 50.7632 114.429 51.1312C115.042 51.4992 115.74 51.6909 116.522 51.7062V53.7762ZM117.695 59.0662C117.357 59.0662 117.074 58.9512 116.844 58.7212C116.629 58.5065 116.522 58.2305 116.522 57.8932V36.8942C116.522 36.5415 116.629 36.2579 116.844 36.0432C117.074 35.8285 117.357 35.7212 117.695 35.7212C118.047 35.7212 118.331 35.8285 118.546 36.0432C118.76 36.2579 118.868 36.5415 118.868 36.8942V57.8932C118.868 58.2305 118.76 58.5065 118.546 58.7212C118.331 58.9512 118.047 59.0662 117.695 59.0662ZM133.965 53.7992C132.907 53.7992 131.957 53.5769 131.113 53.1322C130.285 52.6722 129.626 52.0052 129.135 51.1312C128.66 50.2572 128.422 49.1839 128.422 47.9112V42.2532C128.422 41.9159 128.53 41.6399 128.744 41.4252C128.974 41.1952 129.258 41.0802 129.595 41.0802C129.933 41.0802 130.209 41.1952 130.423 41.4252C130.653 41.6399 130.768 41.9159 130.768 42.2532V47.9112C130.768 48.7699 130.929 49.4829 131.251 50.0502C131.573 50.6022 132.01 51.0162 132.562 51.2922C133.114 51.5529 133.735 51.6832 134.425 51.6832C135.085 51.6832 135.667 51.5529 136.173 51.2922C136.695 51.0315 137.109 50.6789 137.415 50.2342C137.722 49.7895 137.875 49.2912 137.875 48.7392H139.324C139.324 49.6899 139.087 50.5485 138.611 51.3152C138.151 52.0819 137.515 52.6875 136.702 53.1322C135.905 53.5769 134.993 53.7992 133.965 53.7992ZM139.048 53.6842C138.711 53.6842 138.427 53.5769 138.197 53.3622C137.983 53.1322 137.875 52.8485 137.875 52.5112V42.2532C137.875 41.9005 137.983 41.6169 138.197 41.4022C138.427 41.1875 138.711 41.0802 139.048 41.0802C139.401 41.0802 139.685 41.1875 139.899 41.4022C140.114 41.6169 140.221 41.9005 140.221 42.2532V52.5112C140.221 52.8485 140.114 53.1322 139.899 53.3622C139.685 53.5769 139.401 53.6842 139.048 53.6842ZM150.057 53.7762C148.83 53.7762 147.734 53.5002 146.768 52.9482C145.817 52.3809 145.066 51.6219 144.514 50.6712C143.977 49.7052 143.709 48.6165 143.709 47.4052C143.709 46.1632 143.977 45.0592 144.514 44.0932C145.051 43.1272 145.787 42.3759 146.722 41.8392C147.657 41.2872 148.731 41.0112 149.942 41.0112C150.847 41.0112 151.675 41.1875 152.426 41.5402C153.177 41.8775 153.852 42.3912 154.45 43.0812C154.665 43.3265 154.741 43.5795 154.68 43.8402C154.619 44.1009 154.45 44.3309 154.174 44.5302C153.959 44.6835 153.722 44.7372 153.461 44.6912C153.2 44.6299 152.963 44.4919 152.748 44.2772C151.997 43.4799 151.061 43.0812 149.942 43.0812C149.16 43.0812 148.47 43.2652 147.872 43.6332C147.274 43.9859 146.806 44.4842 146.469 45.1282C146.132 45.7722 145.963 46.5312 145.963 47.4052C145.963 48.2332 146.132 48.9692 146.469 49.6132C146.822 50.2572 147.305 50.7709 147.918 51.1542C148.531 51.5222 149.244 51.7062 150.057 51.7062C150.594 51.7062 151.061 51.6449 151.46 51.5222C151.874 51.3842 152.25 51.1772 152.587 50.9012C152.832 50.7019 153.085 50.5945 153.346 50.5792C153.607 50.5485 153.837 50.6175 154.036 50.7862C154.297 51.0009 154.442 51.2462 154.473 51.5222C154.504 51.7829 154.412 52.0205 154.197 52.2352C153.093 53.2625 151.713 53.7762 150.057 53.7762ZM165.503 53.6842C165.165 53.6842 164.882 53.5692 164.652 53.3392C164.437 53.1092 164.33 52.8332 164.33 52.5112C164.33 52.1739 164.437 51.8979 164.652 51.6832L171.184 44.0472C171.644 43.5105 171.996 43.0045 172.242 42.5292C172.502 42.0539 172.633 41.6015 172.633 41.1722C172.633 40.4975 172.518 39.9149 172.288 39.4242C172.058 38.9335 171.728 38.5579 171.299 38.2972C170.869 38.0212 170.356 37.8832 169.758 37.8832C169.175 37.8832 168.646 38.0365 168.171 38.3432C167.711 38.6345 167.343 39.0332 167.067 39.5392C166.806 40.0299 166.676 40.5742 166.676 41.1722C166.676 41.4789 166.561 41.7472 166.331 41.9772C166.116 42.2072 165.84 42.3222 165.503 42.3222C165.181 42.3222 164.905 42.2072 164.675 41.9772C164.445 41.7472 164.33 41.4789 164.33 41.1722C164.33 40.1295 164.567 39.2019 165.043 38.3892C165.518 37.5612 166.162 36.9095 166.975 36.4342C167.803 35.9589 168.73 35.7212 169.758 35.7212C170.8 35.7212 171.705 35.9435 172.472 36.3882C173.238 36.8329 173.829 37.4615 174.243 38.2742C174.672 39.0869 174.887 40.0529 174.887 41.1722C174.887 41.6629 174.779 42.1612 174.565 42.6672C174.365 43.1732 174.105 43.6562 173.783 44.1162C173.476 44.5762 173.162 44.9902 172.84 45.3582L167.573 51.3382H174.013C174.35 51.3382 174.634 51.4609 174.864 51.7062C175.094 51.9362 175.209 52.2045 175.209 52.5112C175.209 52.8332 175.094 53.1092 174.864 53.3392C174.634 53.5692 174.35 53.6842 174.013 53.6842H165.503ZM183.003 53.6842C181.838 53.6842 180.841 53.3315 180.013 52.6262C179.201 51.9055 178.58 50.8782 178.15 49.5442C177.721 48.1949 177.506 46.5772 177.506 44.6912C177.506 42.8052 177.721 41.1952 178.15 39.8612C178.58 38.5119 179.201 37.4845 180.013 36.7792C180.841 36.0585 181.838 35.6982 183.003 35.6982C184.169 35.6982 185.158 36.0662 185.97 36.8022C186.798 37.5229 187.427 38.5579 187.856 39.9072C188.286 41.2412 188.5 42.8359 188.5 44.6912C188.5 46.5465 188.286 48.1489 187.856 49.4982C187.427 50.8322 186.798 51.8672 185.97 52.6032C185.158 53.3239 184.169 53.6842 183.003 53.6842ZM183.003 51.2922C183.709 51.2922 184.291 51.0085 184.751 50.4412C185.211 49.8585 185.556 49.0689 185.786 48.0722C186.016 47.0755 186.131 45.9485 186.131 44.6912C186.131 43.4339 186.016 42.3069 185.786 41.3102C185.556 40.3135 185.211 39.5239 184.751 38.9412C184.291 38.3585 183.709 38.0672 183.003 38.0672C182.298 38.0672 181.715 38.3585 181.255 38.9412C180.795 39.5085 180.45 40.2905 180.22 41.2872C179.99 42.2839 179.875 43.4185 179.875 44.6912C179.875 45.9639 179.99 47.0985 180.22 48.0952C180.45 49.0919 180.795 49.8739 181.255 50.4412C181.731 51.0085 182.313 51.2922 183.003 51.2922ZM200.049 53.6842C199.742 53.6842 199.482 53.5692 199.267 53.3392C199.052 53.1092 198.945 52.8332 198.945 52.5112V49.6132H191.286C190.933 49.6132 190.657 49.5059 190.458 49.2912C190.259 49.0765 190.144 48.8312 190.113 48.5552C190.098 48.2639 190.174 48.0032 190.343 47.7732L199.152 36.2272C199.275 36.0739 199.413 35.9512 199.566 35.8592C199.735 35.7672 199.919 35.7212 200.118 35.7212C200.44 35.7212 200.701 35.8362 200.9 36.0662C201.099 36.2962 201.199 36.5799 201.199 36.9172V47.4972H202.579C202.901 47.4972 203.177 47.5739 203.407 47.7272C203.637 47.8805 203.752 48.1565 203.752 48.5552C203.752 48.8465 203.637 49.0995 203.407 49.3142C203.177 49.5135 202.901 49.6132 202.579 49.6132H201.199V52.5112C201.199 52.8332 201.092 53.1092 200.877 53.3392C200.662 53.5692 200.386 53.6842 200.049 53.6842ZM192.666 48.1412L192.045 47.4972H198.945V38.0212L199.658 38.9412L192.666 48.1412Z" fill="black"/>
</svg>
