<svg width="50" height="50" viewBox="0 0 50 50" fill="none" xmlns="http://www.w3.org/2000/svg">
<circle cx="25" cy="25" r="25" fill="#3F98D7"/>
<g clip-path="url(#clip0_1_26)">
<path fill-rule="evenodd" clip-rule="evenodd" d="M40.8562 15.645L36.6402 35.948C36.1822 38.1985 34.6612 39 33.3897 39C32.7337 39 32.0527 38.8035 31.3637 38.4145L31.2492 38.349L31.1422 38.269L22.3752 31.651L22.0457 35.5185C21.8737 36.422 21.0517 37.071 20.1162 36.994C19.3972 36.9345 18.8142 36.464 18.5707 35.834L17.1077 31.4415C17.0407 31.3065 17.0002 31.1585 17.0002 31C17.0002 30.4475 17.4477 30 18.0002 30C18.4367 30 18.8027 30.28 18.9397 30.669C18.9407 30.669 18.9422 30.668 18.9432 30.6665L20.1442 34.274L20.3202 32.2095C20.3202 32.207 20.3202 32.207 20.3202 32.206C20.4292 30.8835 21.5892 29.8995 22.9117 30.008C23.3482 30.043 23.7447 30.1985 24.0792 30.4315L32.3467 36.6725C32.7317 36.8895 33.0817 36.9995 33.3897 36.9995C34.0282 36.9995 34.4817 36.5245 34.6802 35.549L38.9042 15.208C39.2492 13.798 38.6247 13 37.7842 13C37.5697 13 37.3417 13.052 37.1102 13.1585L12.3082 22.932C10.6147 23.6265 10.6247 24.591 11.9992 25.0205L16.0987 26.3285C16.0997 26.3285 16.1037 26.326 16.1047 26.327C16.3857 26.4145 16.7022 26.384 16.9712 26.2155C16.9762 26.213 16.9797 26.214 16.9842 26.2115L27.9532 19.299C28.8827 18.726 30.1037 19.0035 30.6902 19.9295C31.1887 20.716 31.0657 21.715 30.4562 22.3645L24.7072 28.113V28.114L24.6917 28.1285L24.6907 28.1275C24.5112 28.2995 24.2687 28.4065 24.0012 28.4065C23.4487 28.4065 23.0012 27.959 23.0012 27.4065C23.0012 27.1385 23.1077 26.896 23.2802 26.7165L23.2792 26.7155L28.9762 21.0175L18.0077 27.9295C17.2247 28.4045 16.3097 28.4895 15.4962 28.2315C15.4902 28.229 15.4842 28.2315 15.4777 28.229L11.4027 26.9295C9.2552 26.258 9.0232 24.7015 9.0027 24.241C8.9702 23.465 9.2557 22.022 11.5492 21.081L11.5612 21.076L11.5742 21.071L36.3317 11.316C36.8052 11.1065 37.2937 11 37.7842 11C38.7637 11 39.6672 11.435 40.2632 12.1955C40.9632 13.085 41.1727 14.309 40.8562 15.645ZM24.0002 34C24.5527 34 25.0002 34.4475 25.0002 35C25.0002 35.5525 24.5527 36 24.0002 36C23.4477 36 23.0002 35.5525 23.0002 35C23.0002 34.4475 23.4477 34 24.0002 34Z" fill="white"/>
</g>
<defs>
<clipPath id="clip0_1_26">
<rect width="32" height="32" fill="white" transform="translate(9 9)"/>
</clipPath>
</defs>
</svg>
