<svg width="251" height="42" viewBox="0 0 251 42" fill="none" xmlns="http://www.w3.org/2000/svg">
<path d="M20.7237 4.14478C11.568 4.14478 4.14474 11.568 4.14474 20.7237C4.14474 29.8794 11.568 37.3027 20.7237 37.3027C29.8794 37.3027 37.3026 29.8794 37.3026 20.7237C37.3026 11.568 29.8794 4.14478 20.7237 4.14478ZM22.1053 22.1053H11.0457C10.2859 22.1053 9.67105 21.4905 9.67105 20.7306V20.7154C9.67105 19.9569 10.2859 19.3421 11.0457 19.3421H19.3421V8.2826C19.3421 7.52273 19.9569 6.90793 20.7168 6.90793H20.732C21.4905 6.90793 22.1053 7.52273 22.1053 8.2826V22.1053Z" fill="#3F97D9"/>
<path d="M44.496 31C44.1587 31 43.875 30.885 43.645 30.655C43.415 30.425 43.3 30.1413 43.3 29.804V14.233C43.3 13.8803 43.415 13.5967 43.645 13.382C43.875 13.152 44.1587 13.037 44.496 13.037H56.732C57.0847 13.037 57.3683 13.152 57.583 13.382C57.813 13.5967 57.928 13.8803 57.928 14.233V29.804C57.928 30.1413 57.813 30.425 57.583 30.655C57.3683 30.885 57.0847 31 56.732 31C56.3947 31 56.111 30.885 55.881 30.655C55.651 30.425 55.536 30.1413 55.536 29.804V15.153H45.692V29.804C45.692 30.1413 45.577 30.425 45.347 30.655C45.1323 30.885 44.8487 31 44.496 31ZM63.7226 31C63.3852 31 63.1016 30.885 62.8716 30.655C62.6416 30.425 62.5266 30.1413 62.5266 29.804V14.233C62.5266 13.8803 62.6416 13.5967 62.8716 13.382C63.1016 13.152 63.3852 13.037 63.7226 13.037C64.0752 13.037 64.3589 13.152 64.5736 13.382C64.8036 13.5967 64.9186 13.8803 64.9186 14.233V20.834H75.5906V14.233C75.5906 13.8803 75.7056 13.5967 75.9356 13.382C76.1656 13.152 76.4492 13.037 76.7866 13.037C77.1392 13.037 77.4229 13.152 77.6376 13.382C77.8522 13.5967 77.9596 13.8803 77.9596 14.233V29.804C77.9596 30.1413 77.8522 30.425 77.6376 30.655C77.4229 30.885 77.1392 31 76.7866 31C76.4492 31 76.1656 30.885 75.9356 30.655C75.7056 30.425 75.5906 30.1413 75.5906 29.804V22.95H64.9186V29.804C64.9186 30.1413 64.8036 30.425 64.5736 30.655C64.3589 30.885 64.0752 31 63.7226 31ZM82.2627 25.871C81.9254 25.871 81.6417 25.7637 81.4117 25.549C81.1971 25.3343 81.0897 25.0583 81.0897 24.721C81.0897 24.3683 81.1971 24.0847 81.4117 23.87C81.6417 23.6553 81.9254 23.548 82.2627 23.548H87.3917C87.7291 23.548 88.0051 23.6553 88.2197 23.87C88.4344 24.0847 88.5417 24.3683 88.5417 24.721C88.5417 25.0583 88.4344 25.3343 88.2197 25.549C88.0051 25.7637 87.7291 25.871 87.3917 25.871H82.2627ZM92.7421 31C92.4048 31 92.1211 30.885 91.8911 30.655C91.6611 30.425 91.5461 30.1413 91.5461 29.804V14.233C91.5461 13.8803 91.6611 13.5967 91.8911 13.382C92.1211 13.152 92.4048 13.037 92.7421 13.037H104.978C105.331 13.037 105.614 13.152 105.829 13.382C106.059 13.5967 106.174 13.8803 106.174 14.233V29.804C106.174 30.1413 106.059 30.425 105.829 30.655C105.614 30.885 105.331 31 104.978 31C104.641 31 104.357 30.885 104.127 30.655C103.897 30.425 103.782 30.1413 103.782 29.804V15.153H93.9381V29.804C93.9381 30.1413 93.8231 30.425 93.5931 30.655C93.3784 30.885 93.0948 31 92.7421 31ZM116.086 31C115.748 31 115.465 30.885 115.235 30.655C115.005 30.425 114.89 30.1413 114.89 29.804V13.037H117.282V29.804C117.282 30.1413 117.167 30.425 116.937 30.655C116.707 30.885 116.423 31 116.086 31ZM109.922 15.245C109.6 15.245 109.331 15.1453 109.117 14.946C108.917 14.7313 108.818 14.463 108.818 14.141C108.818 13.819 108.917 13.5583 109.117 13.359C109.331 13.1443 109.6 13.037 109.922 13.037H122.227C122.549 13.037 122.809 13.1443 123.009 13.359C123.223 13.5583 123.331 13.819 123.331 14.141C123.331 14.463 123.223 14.7313 123.009 14.946C122.809 15.1453 122.549 15.245 122.227 15.245H109.922ZM137.064 31C135.899 31 134.902 30.6473 134.074 29.942C133.261 29.2213 132.64 28.194 132.211 26.86C131.782 25.5107 131.567 23.893 131.567 22.007C131.567 20.121 131.782 18.511 132.211 17.177C132.64 15.8277 133.261 14.8003 134.074 14.095C134.902 13.3743 135.899 13.014 137.064 13.014C138.229 13.014 139.218 13.382 140.031 14.118C140.859 14.8387 141.488 15.8737 141.917 17.223C142.346 18.557 142.561 20.1517 142.561 22.007C142.561 23.8623 142.346 25.4647 141.917 26.814C141.488 28.148 140.859 29.183 140.031 29.919C139.218 30.6397 138.229 31 137.064 31ZM137.064 28.608C137.769 28.608 138.352 28.3243 138.812 27.757C139.272 27.1743 139.617 26.3847 139.847 25.388C140.077 24.3913 140.192 23.2643 140.192 22.007C140.192 20.7497 140.077 19.6227 139.847 18.626C139.617 17.6293 139.272 16.8397 138.812 16.257C138.352 15.6743 137.769 15.383 137.064 15.383C136.359 15.383 135.776 15.6743 135.316 16.257C134.856 16.8243 134.511 17.6063 134.281 18.603C134.051 19.5997 133.936 20.7343 133.936 22.007C133.936 23.2797 134.051 24.4143 134.281 25.411C134.511 26.4077 134.856 27.1897 135.316 27.757C135.791 28.3243 136.374 28.608 137.064 28.608ZM150.154 13.014C151.227 13.014 152.17 13.2517 152.983 13.727C153.796 14.187 154.432 14.831 154.892 15.659C155.352 16.4717 155.582 17.407 155.582 18.465C155.582 19.523 155.352 20.466 154.892 21.294C154.432 22.122 153.796 22.7737 152.983 23.249C152.17 23.709 151.227 23.939 150.154 23.939C149.111 23.939 148.176 23.709 147.348 23.249C146.535 22.7737 145.899 22.122 145.439 21.294C144.979 20.466 144.749 19.523 144.749 18.465C144.749 17.407 144.979 16.4717 145.439 15.659C145.899 14.831 146.535 14.187 147.348 13.727C148.161 13.2517 149.096 13.014 150.154 13.014ZM150.177 15.084C149.548 15.084 148.989 15.2297 148.498 15.521C148.023 15.797 147.647 16.188 147.371 16.694C147.095 17.2 146.957 17.7903 146.957 18.465C146.957 19.1243 147.095 19.7147 147.371 20.236C147.647 20.742 148.023 21.1407 148.498 21.432C148.989 21.7233 149.548 21.869 150.177 21.869C150.806 21.869 151.358 21.7233 151.833 21.432C152.324 21.1407 152.699 20.742 152.96 20.236C153.236 19.7147 153.374 19.1243 153.374 18.465C153.374 17.7903 153.236 17.2 152.96 16.694C152.699 16.188 152.324 15.797 151.833 15.521C151.358 15.2297 150.806 15.084 150.177 15.084ZM154.823 21.409L149.487 30.31C149.211 30.7393 148.858 30.954 148.429 30.954C148.122 30.954 147.854 30.862 147.624 30.678C147.409 30.494 147.271 30.264 147.21 29.988C147.164 29.6967 147.225 29.4207 147.394 29.16L150.66 23.732L154.823 21.409ZM159.194 21.616C158.765 21.616 158.389 21.4627 158.067 21.156C157.76 20.834 157.607 20.4583 157.607 20.029C157.607 19.5843 157.76 19.2087 158.067 18.902C158.389 18.58 158.765 18.419 159.194 18.419C159.639 18.419 160.014 18.58 160.321 18.902C160.628 19.2087 160.781 19.5843 160.781 20.029C160.781 20.4583 160.628 20.834 160.321 21.156C160.014 21.4627 159.639 21.616 159.194 21.616ZM159.447 31.368C159.018 31.368 158.642 31.2147 158.32 30.908C158.013 30.586 157.86 30.2103 157.86 29.781C157.86 29.3363 158.013 28.9607 158.32 28.654C158.642 28.332 159.018 28.171 159.447 28.171C159.892 28.171 160.267 28.332 160.574 28.654C160.881 28.9607 161.034 29.3363 161.034 29.781C161.034 30.2103 160.881 30.586 160.574 30.908C160.267 31.2147 159.892 31.368 159.447 31.368ZM164.238 31C163.901 31 163.617 30.885 163.387 30.655C163.173 30.425 163.065 30.149 163.065 29.827C163.065 29.4897 163.173 29.2137 163.387 28.999L169.919 21.363C170.379 20.8263 170.732 20.3203 170.977 19.845C171.238 19.3697 171.368 18.9173 171.368 18.488C171.368 17.8133 171.253 17.2307 171.023 16.74C170.793 16.2493 170.464 15.8737 170.034 15.613C169.605 15.337 169.091 15.199 168.493 15.199C167.911 15.199 167.382 15.3523 166.906 15.659C166.446 15.9503 166.078 16.349 165.802 16.855C165.542 17.3457 165.411 17.89 165.411 18.488C165.411 18.7947 165.296 19.063 165.066 19.293C164.852 19.523 164.576 19.638 164.238 19.638C163.916 19.638 163.64 19.523 163.41 19.293C163.18 19.063 163.065 18.7947 163.065 18.488C163.065 17.4453 163.303 16.5177 163.778 15.705C164.254 14.877 164.898 14.2253 165.71 13.75C166.538 13.2747 167.466 13.037 168.493 13.037C169.536 13.037 170.441 13.2593 171.207 13.704C171.974 14.1487 172.564 14.7773 172.978 15.59C173.408 16.4027 173.622 17.3687 173.622 18.488C173.622 18.9787 173.515 19.477 173.3 19.983C173.101 20.489 172.84 20.972 172.518 21.432C172.212 21.892 171.897 22.306 171.575 22.674L166.308 28.654H172.748C173.086 28.654 173.369 28.7767 173.599 29.022C173.829 29.252 173.944 29.5203 173.944 29.827C173.944 30.149 173.829 30.425 173.599 30.655C173.369 30.885 173.086 31 172.748 31H164.238ZM180.635 31C180.328 31 180.06 30.885 179.83 30.655C179.6 30.425 179.485 30.149 179.485 29.827V15.797L177.806 16.51C177.545 16.6173 177.3 16.671 177.07 16.671C176.732 16.671 176.449 16.5637 176.219 16.349C176.004 16.1343 175.897 15.8583 175.897 15.521C175.897 15.2757 175.958 15.0533 176.081 14.854C176.203 14.6547 176.395 14.509 176.656 14.417L180.244 13.129C180.32 13.0983 180.397 13.0753 180.474 13.06C180.55 13.0447 180.619 13.037 180.681 13.037C181.033 13.037 181.309 13.152 181.509 13.382C181.723 13.5967 181.831 13.8803 181.831 14.233V29.827C181.831 30.149 181.716 30.425 181.486 30.655C181.256 30.885 180.972 31 180.635 31ZM186.122 25.871C185.785 25.871 185.501 25.7637 185.271 25.549C185.056 25.3343 184.949 25.0583 184.949 24.721C184.949 24.3683 185.056 24.0847 185.271 23.87C185.501 23.6553 185.785 23.548 186.122 23.548H191.251C191.588 23.548 191.864 23.6553 192.079 23.87C192.294 24.0847 192.401 24.3683 192.401 24.721C192.401 25.0583 192.294 25.3343 192.079 25.549C191.864 25.7637 191.588 25.871 191.251 25.871H186.122ZM194.628 31C194.291 31 194.007 30.885 193.777 30.655C193.562 30.425 193.455 30.149 193.455 29.827C193.455 29.4897 193.562 29.2137 193.777 28.999L200.309 21.363C200.769 20.8263 201.122 20.3203 201.367 19.845C201.628 19.3697 201.758 18.9173 201.758 18.488C201.758 17.8133 201.643 17.2307 201.413 16.74C201.183 16.2493 200.853 15.8737 200.424 15.613C199.995 15.337 199.481 15.199 198.883 15.199C198.3 15.199 197.771 15.3523 197.296 15.659C196.836 15.9503 196.468 16.349 196.192 16.855C195.931 17.3457 195.801 17.89 195.801 18.488C195.801 18.7947 195.686 19.063 195.456 19.293C195.241 19.523 194.965 19.638 194.628 19.638C194.306 19.638 194.03 19.523 193.8 19.293C193.57 19.063 193.455 18.7947 193.455 18.488C193.455 17.4453 193.693 16.5177 194.168 15.705C194.643 14.877 195.287 14.2253 196.1 13.75C196.928 13.2747 197.856 13.037 198.883 13.037C199.926 13.037 200.83 13.2593 201.597 13.704C202.364 14.1487 202.954 14.7773 203.368 15.59C203.797 16.4027 204.012 17.3687 204.012 18.488C204.012 18.9787 203.905 19.477 203.69 19.983C203.491 20.489 203.23 20.972 202.908 21.432C202.601 21.892 202.287 22.306 201.965 22.674L196.698 28.654H203.138C203.475 28.654 203.759 28.7767 203.989 29.022C204.219 29.252 204.334 29.5203 204.334 29.827C204.334 30.149 204.219 30.425 203.989 30.655C203.759 30.885 203.475 31 203.138 31H194.628ZM211.024 31C210.718 31 210.449 30.885 210.219 30.655C209.989 30.425 209.874 30.149 209.874 29.827V15.797L208.195 16.51C207.935 16.6173 207.689 16.671 207.459 16.671C207.122 16.671 206.838 16.5637 206.608 16.349C206.394 16.1343 206.286 15.8583 206.286 15.521C206.286 15.2757 206.348 15.0533 206.47 14.854C206.593 14.6547 206.785 14.509 207.045 14.417L210.633 13.129C210.71 13.0983 210.787 13.0753 210.863 13.06C210.94 13.0447 211.009 13.037 211.07 13.037C211.423 13.037 211.699 13.152 211.898 13.382C212.113 13.5967 212.22 13.8803 212.22 14.233V29.827C212.22 30.149 212.105 30.425 211.875 30.655C211.645 30.885 211.362 31 211.024 31ZM216.627 21.616C216.197 21.616 215.822 21.4627 215.5 21.156C215.193 20.834 215.04 20.4583 215.04 20.029C215.04 19.5843 215.193 19.2087 215.5 18.902C215.822 18.58 216.197 18.419 216.627 18.419C217.071 18.419 217.447 18.58 217.754 18.902C218.06 19.2087 218.214 19.5843 218.214 20.029C218.214 20.4583 218.06 20.834 217.754 21.156C217.447 21.4627 217.071 21.616 216.627 21.616ZM216.88 31.368C216.45 31.368 216.075 31.2147 215.753 30.908C215.446 30.586 215.293 30.2103 215.293 29.781C215.293 29.3363 215.446 28.9607 215.753 28.654C216.075 28.332 216.45 28.171 216.88 28.171C217.324 28.171 217.7 28.332 218.007 28.654C218.313 28.9607 218.467 29.3363 218.467 29.781C218.467 30.2103 218.313 30.586 218.007 30.908C217.7 31.2147 217.324 31.368 216.88 31.368ZM225.65 31C224.485 31 223.488 30.6473 222.66 29.942C221.847 29.2213 221.226 28.194 220.797 26.86C220.368 25.5107 220.153 23.893 220.153 22.007C220.153 20.121 220.368 18.511 220.797 17.177C221.226 15.8277 221.847 14.8003 222.66 14.095C223.488 13.3743 224.485 13.014 225.65 13.014C226.815 13.014 227.804 13.382 228.617 14.118C229.445 14.8387 230.074 15.8737 230.503 17.223C230.932 18.557 231.147 20.1517 231.147 22.007C231.147 23.8623 230.932 25.4647 230.503 26.814C230.074 28.148 229.445 29.183 228.617 29.919C227.804 30.6397 226.815 31 225.65 31ZM225.65 28.608C226.355 28.608 226.938 28.3243 227.398 27.757C227.858 27.1743 228.203 26.3847 228.433 25.388C228.663 24.3913 228.778 23.2643 228.778 22.007C228.778 20.7497 228.663 19.6227 228.433 18.626C228.203 17.6293 227.858 16.8397 227.398 16.257C226.938 15.6743 226.355 15.383 225.65 15.383C224.945 15.383 224.362 15.6743 223.902 16.257C223.442 16.8243 223.097 17.6063 222.867 18.603C222.637 19.5997 222.522 20.7343 222.522 22.007C222.522 23.2797 222.637 24.4143 222.867 25.411C223.097 26.4077 223.442 27.1897 223.902 27.757C224.377 28.3243 224.96 28.608 225.65 28.608ZM238.947 31C237.781 31 236.785 30.6473 235.957 29.942C235.144 29.2213 234.523 28.194 234.094 26.86C233.664 25.5107 233.45 23.893 233.45 22.007C233.45 20.121 233.664 18.511 234.094 17.177C234.523 15.8277 235.144 14.8003 235.957 14.095C236.785 13.3743 237.781 13.014 238.947 13.014C240.112 13.014 241.101 13.382 241.914 14.118C242.742 14.8387 243.37 15.8737 243.8 17.223C244.229 18.557 244.444 20.1517 244.444 22.007C244.444 23.8623 244.229 25.4647 243.8 26.814C243.37 28.148 242.742 29.183 241.914 29.919C241.101 30.6397 240.112 31 238.947 31ZM238.947 28.608C239.652 28.608 240.235 28.3243 240.695 27.757C241.155 27.1743 241.5 26.3847 241.73 25.388C241.96 24.3913 242.075 23.2643 242.075 22.007C242.075 20.7497 241.96 19.6227 241.73 18.626C241.5 17.6293 241.155 16.8397 240.695 16.257C240.235 15.6743 239.652 15.383 238.947 15.383C238.241 15.383 237.659 15.6743 237.199 16.257C236.739 16.8243 236.394 17.6063 236.164 18.603C235.934 19.5997 235.819 20.7343 235.819 22.007C235.819 23.2797 235.934 24.4143 236.164 25.411C236.394 26.4077 236.739 27.1897 237.199 27.757C237.674 28.3243 238.257 28.608 238.947 28.608Z" fill="black"/>
</svg>
