<svg width="96" height="38" viewBox="0 0 96 38" fill="none" xmlns="http://www.w3.org/2000/svg">
<path d="M10.5 2.09998C5.86111 2.09998 2.10001 5.86107 2.10001 10.5C2.10001 15.1389 5.86111 18.9 10.5 18.9C15.1389 18.9 18.9 15.1389 18.9 10.5C18.9 5.86107 15.1389 2.09998 10.5 2.09998ZM11.2 11.2H5.59651C5.21151 11.2 4.90001 10.8885 4.90001 10.5035V10.4958C4.90001 10.1115 5.21151 9.79997 5.59651 9.79997H9.8V4.19648C9.8 3.81148 10.1115 3.49998 10.4965 3.49998H10.5042C10.8885 3.49998 11.2 3.81148 11.2 4.19648V11.2Z" fill="#3F97D9"/>
<path d="M33.4636 17C33.2436 17 33.0586 16.925 32.9086 16.775C32.7586 16.625 32.6836 16.44 32.6836 16.22V6.065C32.6836 5.835 32.7586 5.65 32.9086 5.51C33.0586 5.36 33.2436 5.285 33.4636 5.285H41.4436C41.6736 5.285 41.8586 5.36 41.9986 5.51C42.1486 5.65 42.2236 5.835 42.2236 6.065V16.22C42.2236 16.44 42.1486 16.625 41.9986 16.775C41.8586 16.925 41.6736 17 41.4436 17C41.2236 17 41.0386 16.925 40.8886 16.775C40.7386 16.625 40.6636 16.44 40.6636 16.22V6.665H34.2436V16.22C34.2436 16.44 34.1686 16.625 34.0186 16.775C33.8786 16.925 33.6936 17 33.4636 17ZM46.0027 17C45.7827 17 45.5977 16.925 45.4477 16.775C45.2977 16.625 45.2227 16.44 45.2227 16.22V6.065C45.2227 5.835 45.2977 5.65 45.4477 5.51C45.5977 5.36 45.7827 5.285 46.0027 5.285C46.2327 5.285 46.4177 5.36 46.5577 5.51C46.7077 5.65 46.7827 5.835 46.7827 6.065V10.37H53.7427V6.065C53.7427 5.835 53.8177 5.65 53.9677 5.51C54.1177 5.36 54.3027 5.285 54.5227 5.285C54.7527 5.285 54.9377 5.36 55.0777 5.51C55.2177 5.65 55.2877 5.835 55.2877 6.065V16.22C55.2877 16.44 55.2177 16.625 55.0777 16.775C54.9377 16.925 54.7527 17 54.5227 17C54.3027 17 54.1177 16.925 53.9677 16.775C53.8177 16.625 53.7427 16.44 53.7427 16.22V11.75H46.7827V16.22C46.7827 16.44 46.7077 16.625 46.5577 16.775C46.4177 16.925 46.2327 17 46.0027 17ZM58.0941 13.655C57.8741 13.655 57.6891 13.585 57.5391 13.445C57.3991 13.305 57.3291 13.125 57.3291 12.905C57.3291 12.675 57.3991 12.49 57.5391 12.35C57.6891 12.21 57.8741 12.14 58.0941 12.14H61.4391C61.6591 12.14 61.8391 12.21 61.9791 12.35C62.1191 12.49 62.1891 12.675 62.1891 12.905C62.1891 13.125 62.1191 13.305 61.9791 13.445C61.8391 13.585 61.6591 13.655 61.4391 13.655H58.0941ZM68.9443 17.15C68.1343 17.15 67.3743 17 66.6643 16.7C65.9643 16.39 65.3493 15.965 64.8193 15.425C64.2993 14.875 63.8893 14.235 63.5893 13.505C63.2993 12.775 63.1543 11.985 63.1543 11.135C63.1543 10.295 63.2993 9.515 63.5893 8.795C63.8893 8.065 64.2993 7.43 64.8193 6.89C65.3493 6.34 65.9643 5.91 66.6643 5.6C67.3643 5.29 68.1243 5.135 68.9443 5.135C69.7143 5.135 70.3743 5.235 70.9243 5.435C71.4843 5.635 72.0443 5.965 72.6043 6.425C72.6843 6.485 72.7443 6.55 72.7843 6.62C72.8343 6.68 72.8643 6.745 72.8743 6.815C72.8943 6.875 72.9043 6.95 72.9043 7.04C72.9043 7.23 72.8343 7.39 72.6943 7.52C72.5643 7.64 72.4043 7.71 72.2143 7.73C72.0243 7.74 71.8393 7.675 71.6593 7.535C71.2893 7.215 70.9043 6.97 70.5043 6.8C70.1143 6.63 69.5943 6.545 68.9443 6.545C68.3543 6.545 67.7993 6.665 67.2793 6.905C66.7593 7.145 66.2993 7.475 65.8993 7.895C65.5093 8.315 65.2043 8.805 64.9843 9.365C64.7643 9.915 64.6543 10.505 64.6543 11.135C64.6543 11.775 64.7643 12.375 64.9843 12.935C65.2043 13.485 65.5093 13.97 65.8993 14.39C66.2993 14.81 66.7593 15.14 67.2793 15.38C67.7993 15.61 68.3543 15.725 68.9443 15.725C69.4543 15.725 69.9343 15.64 70.3843 15.47C70.8443 15.29 71.2843 15.045 71.7043 14.735C71.8843 14.605 72.0593 14.55 72.2293 14.57C72.4093 14.58 72.5593 14.65 72.6793 14.78C72.7993 14.9 72.8593 15.07 72.8593 15.29C72.8593 15.39 72.8393 15.49 72.7993 15.59C72.7593 15.68 72.6993 15.765 72.6193 15.845C72.0793 16.275 71.4993 16.6 70.8793 16.82C70.2693 17.04 69.6243 17.15 68.9443 17.15ZM76.1345 17C75.9145 17 75.7295 16.925 75.5795 16.775C75.4295 16.625 75.3545 16.44 75.3545 16.22V6.065C75.3545 5.835 75.4295 5.65 75.5795 5.51C75.7295 5.36 75.9145 5.285 76.1345 5.285H82.4945C82.6945 5.285 82.8595 5.355 82.9895 5.495C83.1295 5.625 83.1995 5.8 83.1995 6.02C83.1995 6.22 83.1295 6.39 82.9895 6.53C82.8595 6.66 82.6945 6.725 82.4945 6.725H76.9145V10.1H80.3345C81.0845 10.1 81.7495 10.245 82.3295 10.535C82.9095 10.815 83.3595 11.21 83.6795 11.72C84.0095 12.22 84.1745 12.8 84.1745 13.46C84.1745 14.15 84.0095 14.76 83.6795 15.29C83.3595 15.82 82.9095 16.24 82.3295 16.55C81.7495 16.85 81.0845 17 80.3345 17H76.1345ZM76.9145 15.56H80.3345C80.7945 15.56 81.1995 15.48 81.5495 15.32C81.8995 15.16 82.1745 14.925 82.3745 14.615C82.5745 14.305 82.6745 13.92 82.6745 13.46C82.6745 13 82.5745 12.625 82.3745 12.335C82.1745 12.035 81.8995 11.815 81.5495 11.675C81.1995 11.525 80.7945 11.45 80.3345 11.45H76.9145V15.56ZM86.382 10.88C86.102 10.88 85.857 10.78 85.647 10.58C85.447 10.37 85.347 10.125 85.347 9.845C85.347 9.555 85.447 9.31 85.647 9.11C85.857 8.9 86.102 8.795 86.382 8.795C86.672 8.795 86.917 8.9 87.117 9.11C87.317 9.31 87.417 9.555 87.417 9.845C87.417 10.125 87.317 10.37 87.117 10.58C86.917 10.78 86.672 10.88 86.382 10.88ZM86.547 17.24C86.267 17.24 86.022 17.14 85.812 16.94C85.612 16.73 85.512 16.485 85.512 16.205C85.512 15.915 85.612 15.67 85.812 15.47C86.022 15.26 86.267 15.155 86.547 15.155C86.837 15.155 87.082 15.26 87.282 15.47C87.482 15.67 87.582 15.915 87.582 16.205C87.582 16.485 87.482 16.73 87.282 16.94C87.082 17.14 86.837 17.24 86.547 17.24ZM22.335 34C21.575 34 20.925 33.77 20.385 33.31C19.855 32.84 19.45 32.17 19.17 31.3C18.89 30.42 18.75 29.365 18.75 28.135C18.75 26.905 18.89 25.855 19.17 24.985C19.45 24.105 19.855 23.435 20.385 22.975C20.925 22.505 21.575 22.27 22.335 22.27C23.095 22.27 23.74 22.51 24.27 22.99C24.81 23.46 25.22 24.135 25.5 25.015C25.78 25.885 25.92 26.925 25.92 28.135C25.92 29.345 25.78 30.39 25.5 31.27C25.22 32.14 24.81 32.815 24.27 33.295C23.74 33.765 23.095 34 22.335 34ZM22.335 32.44C22.795 32.44 23.175 32.255 23.475 31.885C23.775 31.505 24 30.99 24.15 30.34C24.3 29.69 24.375 28.955 24.375 28.135C24.375 27.315 24.3 26.58 24.15 25.93C24 25.28 23.775 24.765 23.475 24.385C23.175 24.005 22.795 23.815 22.335 23.815C21.875 23.815 21.495 24.005 21.195 24.385C20.895 24.755 20.67 25.265 20.52 25.915C20.37 26.565 20.295 27.305 20.295 28.135C20.295 28.965 20.37 29.705 20.52 30.355C20.67 31.005 20.895 31.515 21.195 31.885C21.505 32.255 21.885 32.44 22.335 32.44ZM30.8719 22.27C31.5719 22.27 32.1869 22.425 32.7169 22.735C33.2469 23.035 33.6619 23.455 33.9619 23.995C34.2619 24.525 34.4119 25.135 34.4119 25.825C34.4119 26.515 34.2619 27.13 33.9619 27.67C33.6619 28.21 33.2469 28.635 32.7169 28.945C32.1869 29.245 31.5719 29.395 30.8719 29.395C30.1919 29.395 29.5819 29.245 29.0419 28.945C28.5119 28.635 28.0969 28.21 27.7969 27.67C27.4969 27.13 27.3469 26.515 27.3469 25.825C27.3469 25.135 27.4969 24.525 27.7969 23.995C28.0969 23.455 28.5119 23.035 29.0419 22.735C29.5719 22.425 30.1819 22.27 30.8719 22.27ZM30.8869 23.62C30.4769 23.62 30.1119 23.715 29.7919 23.905C29.4819 24.085 29.2369 24.34 29.0569 24.67C28.8769 25 28.7869 25.385 28.7869 25.825C28.7869 26.255 28.8769 26.64 29.0569 26.98C29.2369 27.31 29.4819 27.57 29.7919 27.76C30.1119 27.95 30.4769 28.045 30.8869 28.045C31.2969 28.045 31.6569 27.95 31.9669 27.76C32.2869 27.57 32.5319 27.31 32.7019 26.98C32.8819 26.64 32.9719 26.255 32.9719 25.825C32.9719 25.385 32.8819 25 32.7019 24.67C32.5319 24.34 32.2869 24.085 31.9669 23.905C31.6569 23.715 31.2969 23.62 30.8869 23.62ZM33.9169 27.745L30.4369 33.55C30.2569 33.83 30.0269 33.97 29.7469 33.97C29.5469 33.97 29.3719 33.91 29.2219 33.79C29.0819 33.67 28.9919 33.52 28.9519 33.34C28.9219 33.15 28.9619 32.97 29.0719 32.8L31.2019 29.26L33.9169 27.745ZM36.7677 27.88C36.4877 27.88 36.2427 27.78 36.0327 27.58C35.8327 27.37 35.7327 27.125 35.7327 26.845C35.7327 26.555 35.8327 26.31 36.0327 26.11C36.2427 25.9 36.4877 25.795 36.7677 25.795C37.0577 25.795 37.3027 25.9 37.5027 26.11C37.7027 26.31 37.8027 26.555 37.8027 26.845C37.8027 27.125 37.7027 27.37 37.5027 27.58C37.3027 27.78 37.0577 27.88 36.7677 27.88ZM36.9327 34.24C36.6527 34.24 36.4077 34.14 36.1977 33.94C35.9977 33.73 35.8977 33.485 35.8977 33.205C35.8977 32.915 35.9977 32.67 36.1977 32.47C36.4077 32.26 36.6527 32.155 36.9327 32.155C37.2227 32.155 37.4677 32.26 37.6677 32.47C37.8677 32.67 37.9677 32.915 37.9677 33.205C37.9677 33.485 37.8677 33.73 37.6677 33.94C37.4677 34.14 37.2227 34.24 36.9327 34.24ZM42.6524 34C41.8924 34 41.2424 33.77 40.7024 33.31C40.1724 32.84 39.7674 32.17 39.4874 31.3C39.2074 30.42 39.0674 29.365 39.0674 28.135C39.0674 26.905 39.2074 25.855 39.4874 24.985C39.7674 24.105 40.1724 23.435 40.7024 22.975C41.2424 22.505 41.8924 22.27 42.6524 22.27C43.4124 22.27 44.0574 22.51 44.5874 22.99C45.1274 23.46 45.5374 24.135 45.8174 25.015C46.0974 25.885 46.2374 26.925 46.2374 28.135C46.2374 29.345 46.0974 30.39 45.8174 31.27C45.5374 32.14 45.1274 32.815 44.5874 33.295C44.0574 33.765 43.4124 34 42.6524 34ZM42.6524 32.44C43.1124 32.44 43.4924 32.255 43.7924 31.885C44.0924 31.505 44.3174 30.99 44.4674 30.34C44.6174 29.69 44.6924 28.955 44.6924 28.135C44.6924 27.315 44.6174 26.58 44.4674 25.93C44.3174 25.28 44.0924 24.765 43.7924 24.385C43.4924 24.005 43.1124 23.815 42.6524 23.815C42.1924 23.815 41.8124 24.005 41.5124 24.385C41.2124 24.755 40.9874 25.265 40.8374 25.915C40.6874 26.565 40.6124 27.305 40.6124 28.135C40.6124 28.965 40.6874 29.705 40.8374 30.355C40.9874 31.005 41.2124 31.515 41.5124 31.885C41.8224 32.255 42.2024 32.44 42.6524 32.44ZM51.3243 34C50.5643 34 49.9143 33.77 49.3743 33.31C48.8443 32.84 48.4393 32.17 48.1593 31.3C47.8793 30.42 47.7393 29.365 47.7393 28.135C47.7393 26.905 47.8793 25.855 48.1593 24.985C48.4393 24.105 48.8443 23.435 49.3743 22.975C49.9143 22.505 50.5643 22.27 51.3243 22.27C52.0843 22.27 52.7293 22.51 53.2593 22.99C53.7993 23.46 54.2093 24.135 54.4893 25.015C54.7693 25.885 54.9093 26.925 54.9093 28.135C54.9093 29.345 54.7693 30.39 54.4893 31.27C54.2093 32.14 53.7993 32.815 53.2593 33.295C52.7293 33.765 52.0843 34 51.3243 34ZM51.3243 32.44C51.7843 32.44 52.1643 32.255 52.4643 31.885C52.7643 31.505 52.9893 30.99 53.1393 30.34C53.2893 29.69 53.3643 28.955 53.3643 28.135C53.3643 27.315 53.2893 26.58 53.1393 25.93C52.9893 25.28 52.7643 24.765 52.4643 24.385C52.1643 24.005 51.7843 23.815 51.3243 23.815C50.8643 23.815 50.4843 24.005 50.1843 24.385C49.8843 24.755 49.6593 25.265 49.5093 25.915C49.3593 26.565 49.2843 27.305 49.2843 28.135C49.2843 28.965 49.3593 29.705 49.5093 30.355C49.6593 31.005 49.8843 31.515 50.1843 31.885C50.4943 32.255 50.8743 32.44 51.3243 32.44ZM56.9661 30.655C56.7461 30.655 56.5611 30.585 56.4111 30.445C56.2711 30.305 56.2011 30.125 56.2011 29.905C56.2011 29.675 56.2711 29.49 56.4111 29.35C56.5611 29.21 56.7461 29.14 56.9661 29.14H60.3111C60.5311 29.14 60.7111 29.21 60.8511 29.35C60.9911 29.49 61.0611 29.675 61.0611 29.905C61.0611 30.125 60.9911 30.305 60.8511 30.445C60.7111 30.585 60.5311 30.655 60.3111 30.655H56.9661ZM62.5134 34C62.2934 34 62.1084 33.925 61.9584 33.775C61.8184 33.625 61.7484 33.445 61.7484 33.235C61.7484 33.015 61.8184 32.835 61.9584 32.695L66.2184 27.715C66.5184 27.365 66.7484 27.035 66.9084 26.725C67.0784 26.415 67.1634 26.12 67.1634 25.84C67.1634 25.4 67.0884 25.02 66.9384 24.7C66.7884 24.38 66.5734 24.135 66.2934 23.965C66.0134 23.785 65.6784 23.695 65.2884 23.695C64.9084 23.695 64.5634 23.795 64.2534 23.995C63.9534 24.185 63.7134 24.445 63.5334 24.775C63.3634 25.095 63.2784 25.45 63.2784 25.84C63.2784 26.04 63.2034 26.215 63.0534 26.365C62.9134 26.515 62.7334 26.59 62.5134 26.59C62.3034 26.59 62.1234 26.515 61.9734 26.365C61.8234 26.215 61.7484 26.04 61.7484 25.84C61.7484 25.16 61.9034 24.555 62.2134 24.025C62.5234 23.485 62.9434 23.06 63.4734 22.75C64.0134 22.44 64.6184 22.285 65.2884 22.285C65.9684 22.285 66.5584 22.43 67.0584 22.72C67.5584 23.01 67.9434 23.42 68.2134 23.95C68.4934 24.48 68.6334 25.11 68.6334 25.84C68.6334 26.16 68.5634 26.485 68.4234 26.815C68.2934 27.145 68.1234 27.46 67.9134 27.76C67.7134 28.06 67.5084 28.33 67.2984 28.57L63.8634 32.47H68.0634C68.2834 32.47 68.4684 32.55 68.6184 32.71C68.7684 32.86 68.8434 33.035 68.8434 33.235C68.8434 33.445 68.7684 33.625 68.6184 33.775C68.4684 33.925 68.2834 34 68.0634 34H62.5134ZM73.2068 34C73.0068 34 72.8318 33.925 72.6818 33.775C72.5318 33.625 72.4568 33.445 72.4568 33.235V24.085L71.3618 24.55C71.1918 24.62 71.0318 24.655 70.8818 24.655C70.6618 24.655 70.4768 24.585 70.3268 24.445C70.1868 24.305 70.1168 24.125 70.1168 23.905C70.1168 23.745 70.1568 23.6 70.2368 23.47C70.3168 23.34 70.4418 23.245 70.6118 23.185L72.9518 22.345C73.0018 22.325 73.0518 22.31 73.1018 22.3C73.1518 22.29 73.1968 22.285 73.2368 22.285C73.4668 22.285 73.6468 22.36 73.7768 22.51C73.9168 22.65 73.9868 22.835 73.9868 23.065V33.235C73.9868 33.445 73.9118 33.625 73.7618 33.775C73.6118 33.925 73.4268 34 73.2068 34ZM76.8605 27.88C76.5805 27.88 76.3355 27.78 76.1255 27.58C75.9255 27.37 75.8255 27.125 75.8255 26.845C75.8255 26.555 75.9255 26.31 76.1255 26.11C76.3355 25.9 76.5805 25.795 76.8605 25.795C77.1505 25.795 77.3955 25.9 77.5955 26.11C77.7955 26.31 77.8955 26.555 77.8955 26.845C77.8955 27.125 77.7955 27.37 77.5955 27.58C77.3955 27.78 77.1505 27.88 76.8605 27.88ZM77.0255 34.24C76.7455 34.24 76.5005 34.14 76.2905 33.94C76.0905 33.73 75.9905 33.485 75.9905 33.205C75.9905 32.915 76.0905 32.67 76.2905 32.47C76.5005 32.26 76.7455 32.155 77.0255 32.155C77.3155 32.155 77.5605 32.26 77.7605 32.47C77.9605 32.67 78.0605 32.915 78.0605 33.205C78.0605 33.485 77.9605 33.73 77.7605 33.94C77.5605 34.14 77.3155 34.24 77.0255 34.24ZM82.7452 34C81.9852 34 81.3352 33.77 80.7952 33.31C80.2652 32.84 79.8602 32.17 79.5802 31.3C79.3002 30.42 79.1602 29.365 79.1602 28.135C79.1602 26.905 79.3002 25.855 79.5802 24.985C79.8602 24.105 80.2652 23.435 80.7952 22.975C81.3352 22.505 81.9852 22.27 82.7452 22.27C83.5052 22.27 84.1502 22.51 84.6802 22.99C85.2202 23.46 85.6302 24.135 85.9102 25.015C86.1902 25.885 86.3302 26.925 86.3302 28.135C86.3302 29.345 86.1902 30.39 85.9102 31.27C85.6302 32.14 85.2202 32.815 84.6802 33.295C84.1502 33.765 83.5052 34 82.7452 34ZM82.7452 32.44C83.2052 32.44 83.5852 32.255 83.8852 31.885C84.1852 31.505 84.4102 30.99 84.5602 30.34C84.7102 29.69 84.7852 28.955 84.7852 28.135C84.7852 27.315 84.7102 26.58 84.5602 25.93C84.4102 25.28 84.1852 24.765 83.8852 24.385C83.5852 24.005 83.2052 23.815 82.7452 23.815C82.2852 23.815 81.9052 24.005 81.6052 24.385C81.3052 24.755 81.0802 25.265 80.9302 25.915C80.7802 26.565 80.7052 27.305 80.7052 28.135C80.7052 28.965 80.7802 29.705 80.9302 30.355C81.0802 31.005 81.3052 31.515 81.6052 31.885C81.9152 32.255 82.2952 32.44 82.7452 32.44ZM91.417 34C90.657 34 90.007 33.77 89.467 33.31C88.937 32.84 88.532 32.17 88.252 31.3C87.972 30.42 87.832 29.365 87.832 28.135C87.832 26.905 87.972 25.855 88.252 24.985C88.532 24.105 88.937 23.435 89.467 22.975C90.007 22.505 90.657 22.27 91.417 22.27C92.177 22.27 92.822 22.51 93.352 22.99C93.892 23.46 94.302 24.135 94.582 25.015C94.862 25.885 95.002 26.925 95.002 28.135C95.002 29.345 94.862 30.39 94.582 31.27C94.302 32.14 93.892 32.815 93.352 33.295C92.822 33.765 92.177 34 91.417 34ZM91.417 32.44C91.877 32.44 92.257 32.255 92.557 31.885C92.857 31.505 93.082 30.99 93.232 30.34C93.382 29.69 93.457 28.955 93.457 28.135C93.457 27.315 93.382 26.58 93.232 25.93C93.082 25.28 92.857 24.765 92.557 24.385C92.257 24.005 91.877 23.815 91.417 23.815C90.957 23.815 90.577 24.005 90.277 24.385C89.977 24.755 89.752 25.265 89.602 25.915C89.452 26.565 89.377 27.305 89.377 28.135C89.377 28.965 89.452 29.705 89.602 30.355C89.752 31.005 89.977 31.515 90.277 31.885C90.587 32.255 90.967 32.44 91.417 32.44Z" fill="black"/>
</svg>
