<svg width="50" height="50" viewBox="0 0 50 50" fill="none" xmlns="http://www.w3.org/2000/svg">
<circle cx="25" cy="25" r="25" fill="#3F98D7"/>
<g clip-path="url(#clip0_1_22)">
<path fill-rule="evenodd" clip-rule="evenodd" d="M32.566 27.2495L29.331 26.641C28.78 26.538 28.413 25.978 28.51 25.3915C28.607 24.8045 29.1315 24.4135 29.6825 24.5165L33.2195 25.1815C34.401 25.4215 35.1815 26.561 34.9635 27.754C34.9585 27.781 34.95 27.805 34.945 27.8315C34.7815 28.418 34.5075 28.955 34.106 29.417C31.7985 32.0695 26.3265 31.3055 21.8845 27.709C17.442 24.114 15.711 19.0485 18.0195 16.3965C18.5685 15.7645 19.2995 15.331 20.1515 15.081C20.223 15.063 20.292 15.0375 20.3635 15.027C20.3635 15.027 20.3645 15.0255 20.366 15.0255C21.3285 14.8775 22.2885 15.4065 22.673 16.3335L23.9325 19.708C24.119 20.207 23.855 20.759 23.342 20.9405C22.8305 21.1225 22.2645 20.8655 22.078 20.3665L20.9205 17.2645C20.825 17.06 20.5935 16.953 20.375 17.027C20.055 17.1785 19.776 17.3785 19.552 17.6365C17.9545 19.473 19.5735 23.3215 23.17 26.2315C26.7665 29.1415 30.9775 30.013 32.5745 28.177C32.673 28.063 32.755 27.9405 32.8285 27.8125C32.8475 27.7765 32.8635 27.739 32.8705 27.6965C32.9035 27.4885 32.7675 27.297 32.566 27.2495ZM13 28C13 28.5525 12.5525 29 12 29C11.4475 29 11 28.5525 11 28C11 27.4475 11.4475 27 12 27C12.5525 27 13 27.4475 13 28ZM26 39C23.4875 39 21.114 38.4135 18.999 37.3805C18.9665 37.3665 18.935 37.3515 18.9045 37.337C18.874 37.3225 18.8425 37.309 18.812 37.2935C18.2265 37 17.5355 36.9115 16.8545 37.097C16.8415 37.1005 16.828 37.103 16.8145 37.1065L13.9125 37.9125C13.902 37.915 13.8895 37.915 13.8785 37.919C13.4955 38.0245 13.081 38.032 12.671 37.919C11.46 37.5865 10.7485 36.336 11.081 35.125C11.088 35.097 11.0905 35.076 11.0965 35.051L11.9445 32H12C12 31.4475 12.4475 31 13 31C13.5525 31 14 31.4475 14 32H14.0205L13.988 32.1175C13.976 32.2255 13.948 32.327 13.9035 32.4215L13.006 35.655C13.006 35.657 13.0095 35.6535 13.0095 35.656C12.9695 35.8015 13.0565 35.952 13.202 35.9905C13.2455 36.0025 13.2895 36.0025 13.329 35.9945C13.3315 35.9945 13.328 35.9995 13.329 35.9995L16.305 35.1725C16.311 35.1715 16.315 35.1715 16.321 35.1705C17.492 34.849 18.681 34.9945 19.6895 35.496C19.6995 35.501 19.711 35.5025 19.722 35.506C21.611 36.457 23.7405 37 26 37C33.7325 37 40 30.732 40 23C40 15.268 33.7325 9 26 9C18.268 9 12 15.268 12 23C12 23.2935 12.0145 23.5845 12.0325 23.8725L11.9875 23.8765C11.9925 23.9165 12 23.9575 12 24C12 24.5525 11.5525 25 11 25C10.4475 25 10 24.5525 10 24C10 23.924 10.01 23.8495 10.0265 23.7795C10.013 23.52 10 23.2615 10 23C10 14.1635 17.1635 7 26 7C34.8365 7 42 14.1635 42 23C42 31.8365 34.8365 39 26 39Z" fill="white"/>
</g>
<defs>
<clipPath id="clip0_1_22">
<rect width="32" height="32" fill="white" transform="translate(10 7)"/>
</clipPath>
</defs>
</svg>
